<svg xmlns="http://www.w3.org/2000/svg" width="1024" height="1024" viewBox="0 0 1024 1024">
<g>
<path d="M 504.00 845.59 C500.98,843.80 486.35,835.66 471.50,827.51 C456.65,819.35 435.73,807.86 425.00,801.97 C414.27,796.09 396.05,785.99 384.50,779.53 C372.95,773.07 352.25,761.57 338.50,753.97 C324.75,746.37 292.58,728.53 267.00,714.32 L 220.50 688.50 L 220.00 613.50 L 219.50 538.50 L 215.75 538.19 L 212.00 537.88 L 212.00 532.00 L 212.00 526.12 L 215.75 525.81 L 219.50 525.50 L 219.77 499.75 L 220.03 474.00 L 215.97 474.00 L 211.91 474.00 L 212.20 467.25 L 212.50 460.50 L 216.25 460.19 L 220.00 459.88 L 220.00 396.52 L 220.00 333.16 L 299.25 289.20 C388.38,239.76 422.26,221.05 498.66,179.08 L 511.83 171.85 L 528.66 181.07 C542.85,188.84 580.34,209.51 655.50,250.98 C717.60,285.25 790.02,325.38 797.29,329.57 L 804.00 333.43 L 803.96 510.96 L 803.93 688.50 L 758.71 713.44 C733.85,727.16 683.35,755.11 646.50,775.55 C546.84,830.84 513.36,849.01 511.33,848.92 C510.32,848.88 507.02,847.38 504.00,845.59 ZM 510.00 806.50 L 510.00 768.00 L 500.50 768.00 L 491.00 768.00 L 491.00 779.89 L 491.00 791.78 L 478.75 792.45 C472.01,792.81 465.15,793.17 463.50,793.23 C459.96,793.38 439.24,783.78 438.40,781.61 C438.09,780.80 438.23,768.07 438.71,753.32 L 439.59 726.50 L 430.04 710.60 L 420.50 694.69 L 401.50 684.78 C391.05,679.33 373.73,670.23 363.00,664.55 C352.27,658.87 338.10,651.42 331.50,647.98 C324.90,644.54 318.47,641.10 317.22,640.32 C315.07,639.00 312.26,640.34 270.72,662.45 C246.40,675.40 226.05,686.16 225.50,686.37 C224.83,686.62 224.83,687.09 225.50,687.78 C226.05,688.35 247.65,700.49 273.50,714.77 C299.35,729.05 338.50,750.75 360.50,762.99 C382.50,775.23 418.50,795.15 440.50,807.26 C462.50,819.36 486.80,832.79 494.50,837.10 C502.20,841.40 508.84,844.94 509.25,844.96 C509.66,844.98 510.00,827.67 510.00,806.50 ZM 542.09 829.92 C598.05,799.14 653.78,768.32 764.74,706.76 C783.57,696.31 798.75,687.40 798.48,686.96 C798.21,686.52 792.25,683.14 785.24,679.45 C778.23,675.76 758.23,665.13 740.78,655.82 L 709.06 638.91 L 689.78 649.09 C679.18,654.69 661.95,663.76 651.50,669.24 C641.05,674.72 631.04,680.09 629.25,681.18 L 626.00 683.16 L 626.00 692.43 L 626.00 701.70 L 617.75 702.35 C613.21,702.70 606.24,702.99 602.25,702.99 L 595.00 703.00 L 595.00 718.94 C595.00,730.60 594.66,735.10 593.75,735.69 C593.06,736.14 584.96,736.65 575.75,736.83 L 559.00 737.17 L 559.00 751.00 L 559.00 764.84 L 552.75 765.40 C549.31,765.71 539.08,766.31 530.00,766.73 L 513.50 767.50 L 513.24 806.25 C513.09,827.56 513.36,845.00 513.83,845.00 C514.29,845.00 527.01,838.22 542.09,829.92 ZM 486.28 765.09 C486.71,764.68 486.94,758.75 486.78,751.92 L 486.50 739.50 L 474.75 739.22 C464.05,738.96 463.00,739.10 462.97,740.72 C462.95,741.70 462.67,748.08 462.36,754.89 L 461.78 767.29 L 473.64 766.57 C480.16,766.17 485.85,765.51 486.28,765.09 ZM 518.60 764.23 C519.88,763.38 521.45,739.38 520.27,738.70 C519.85,738.45 512.64,738.48 504.25,738.76 L 489.00 739.27 L 489.00 752.14 L 489.00 765.00 L 503.25 764.98 C511.09,764.98 518.00,764.64 518.60,764.23 ZM 555.25 762.34 C555.66,762.09 556.00,756.51 556.00,749.94 L 556.00 738.00 L 539.64 738.00 L 523.27 738.00 L 522.75 750.25 C522.47,756.99 522.47,762.89 522.76,763.38 C523.26,764.24 553.75,763.27 555.25,762.34 ZM 481.00 733.91 C476.92,730.58 472.81,729.30 467.75,729.76 C463.28,730.18 463.00,730.37 463.00,733.10 L 463.00 736.00 L 473.25 735.98 L 483.50 735.96 L 481.00 733.91 ZM 521.18 726.50 L 521.50 717.00 L 505.25 717.00 L 489.00 717.00 L 489.00 726.50 L 489.00 736.00 L 504.93 736.00 L 520.86 736.00 L 521.18 726.50 ZM 551.36 735.36 L 556.00 734.73 L 556.00 719.49 L 556.00 704.26 L 546.25 704.65 C540.89,704.86 533.69,705.29 530.25,705.60 L 524.00 706.16 L 523.99 711.33 C523.99,714.17 523.70,720.89 523.34,726.25 L 522.70 736.00 L 534.71 736.00 C541.32,736.00 548.81,735.71 551.36,735.36 ZM 591.25 733.34 C592.25,732.73 592.22,704.25 591.22,703.64 C590.79,703.37 583.37,703.41 574.72,703.73 L 559.00 704.30 L 559.00 719.78 L 559.00 735.27 L 574.75 734.54 C583.41,734.13 590.84,733.60 591.25,733.34 ZM 486.52 725.78 L 487.25 717.57 L 483.91 714.78 C478.60,710.35 478.00,710.90 477.99,720.25 C477.98,728.34 478.04,728.55 481.24,731.22 C483.03,732.72 484.79,733.96 485.15,733.97 C485.50,733.99 486.12,730.30 486.52,725.78 ZM 464.75 727.01 C474.12,727.00 475.00,726.84 475.00,725.11 C475.00,723.97 473.72,722.62 471.75,721.68 C469.96,720.83 459.53,715.39 448.57,709.58 C437.61,703.77 428.49,699.18 428.30,699.37 C428.11,699.56 429.69,702.59 431.82,706.11 C433.95,709.62 437.63,716.04 440.00,720.37 L 444.31 728.24 L 449.41 727.63 C452.21,727.29 459.11,727.01 464.75,727.01 ZM 475.54 710.25 C476.01,708.11 476.51,708.00 485.37,708.00 C490.50,708.00 498.14,707.71 502.35,707.35 L 510.00 706.71 L 510.00 628.75 C510.00,566.77 509.74,550.89 508.75,551.30 C506.16,552.37 383.33,607.84 379.78,609.55 L 376.05 611.35 L 379.22 616.92 C380.97,619.99 386.94,630.15 392.50,639.50 C398.05,648.85 407.52,664.89 413.55,675.14 L 424.50 693.77 L 449.50 706.87 L 474.50 719.97 L 474.77 716.24 C474.91,714.18 475.26,711.49 475.54,710.25 ZM 511.40 714.01 C518.25,714.00 518.29,713.98 516.50,712.00 C514.84,710.16 513.42,710.00 498.85,710.00 C490.13,710.00 483.00,710.34 483.00,710.75 C483.00,711.16 484.24,712.28 485.75,713.23 C487.97,714.63 490.06,714.87 496.50,714.49 C500.90,714.23 507.61,714.01 511.40,714.01 ZM 521.70 708.56 C521.40,706.66 520.10,703.69 518.82,701.96 L 516.50 698.80 L 516.19 703.02 C515.94,706.29 516.38,707.77 518.11,709.62 C521.23,712.93 522.36,712.60 521.70,708.56 ZM 517.17 693.62 C518.86,693.28 524.36,692.95 529.38,692.89 C534.39,692.84 542.51,692.50 547.40,692.14 L 556.30 691.50 L 556.47 677.44 C556.57,669.71 556.98,662.85 557.38,662.19 C557.86,661.42 561.07,661.00 566.41,661.00 C570.97,661.00 578.14,660.71 582.35,660.35 L 590.00 659.71 L 590.00 641.96 C590.00,621.71 588.88,623.82 600.33,622.45 C603.54,622.06 606.36,621.23 606.60,620.59 C606.85,619.96 606.70,613.19 606.27,605.55 L 605.50 591.67 L 582.00 581.25 C569.08,575.51 548.65,566.36 536.61,560.91 C524.57,555.46 514.33,551.00 513.86,551.00 C513.39,551.00 513.09,586.21 513.20,629.25 C513.30,672.29 513.55,704.51 513.74,700.87 C514.08,694.36 514.14,694.22 517.17,693.62 ZM 556.50 698.08 L 556.50 694.66 L 544.00 694.94 C537.12,695.09 528.45,695.51 524.72,695.86 L 517.95 696.50 L 520.84 700.00 L 523.73 703.50 L 540.12 702.50 L 556.50 701.50 L 556.50 698.08 ZM 579.75 701.34 L 591.00 700.69 L 591.00 683.85 L 591.00 667.00 L 575.00 667.00 L 559.00 667.00 L 559.00 684.50 L 559.00 702.00 L 563.75 702.00 C566.36,701.99 573.56,701.70 579.75,701.34 ZM 620.75 699.42 C622.97,698.97 623.00,698.77 623.00,682.48 L 623.00 666.00 L 607.92 666.00 L 592.84 666.00 L 593.50 682.25 C593.86,691.19 594.32,699.05 594.53,699.72 C594.81,700.62 597.93,700.80 606.71,700.40 C613.19,700.11 619.51,699.67 620.75,699.42 ZM 416.77 687.75 C415.96,686.51 407.87,672.90 398.78,657.50 C373.43,614.53 372.83,613.52 372.52,613.20 C372.25,612.92 346.64,624.23 326.13,633.69 L 317.76 637.55 L 328.13 642.94 C333.83,645.91 347.50,653.14 358.50,659.01 C369.50,664.88 386.60,673.87 396.50,678.98 C406.40,684.10 414.93,688.67 415.45,689.14 C417.34,690.85 418.20,689.95 416.77,687.75 ZM 242.93 674.10 C253.14,668.65 271.85,658.70 284.50,651.97 C297.15,645.25 308.74,639.03 310.25,638.16 L 313.00 636.57 L 313.00 574.73 C313.00,506.45 313.05,507.00 307.13,507.00 C304.64,507.00 303.40,508.36 296.65,518.50 C289.32,529.51 288.84,530.00 285.50,530.00 C282.19,530.00 282.00,530.19 282.00,533.38 C282.00,538.53 280.36,539.29 271.30,538.33 L 263.50 537.50 L 263.00 533.50 C262.54,529.83 262.25,529.50 259.50,529.50 C256.70,529.50 256.48,529.77 256.20,533.65 C255.81,538.90 255.56,538.97 236.91,538.99 L 222.32 539.00 L 222.25 611.50 C222.21,662.95 222.50,684.00 223.27,684.00 C223.87,684.00 232.71,679.54 242.93,674.10 ZM 801.00 510.43 L 801.00 336.87 L 786.25 344.64 C766.47,355.06 756.25,360.47 731.71,373.49 L 711.00 384.49 L 711.00 424.24 L 711.00 464.00 L 721.83 464.00 L 732.66 464.00 L 744.58 471.77 C776.68,492.70 785.00,498.49 784.99,499.94 C784.99,500.80 781.72,503.50 777.74,505.94 C773.76,508.39 762.23,515.70 752.11,522.19 L 733.73 534.00 L 722.36 534.00 L 711.00 534.00 L 711.00 585.41 L 711.00 636.83 L 755.25 660.41 C779.59,673.37 799.84,683.99 800.25,683.99 C800.66,684.00 801.00,605.89 801.00,510.43 ZM 636.38 674.15 C641.40,671.48 658.92,662.19 675.31,653.51 C691.71,644.83 704.76,637.38 704.31,636.95 C703.87,636.53 696.41,633.03 687.75,629.18 C677.72,624.72 672.00,622.65 672.00,623.48 C672.00,625.44 669.61,626.00 661.29,626.00 L 653.73 626.00 L 654.12 644.13 C654.44,659.49 654.27,662.39 653.00,663.07 C652.17,663.52 645.65,664.25 638.50,664.69 L 625.50 665.50 L 625.18 669.92 C624.86,674.50 625.58,679.00 626.65,679.00 C626.99,679.00 631.37,676.82 636.38,674.15 ZM 582.35 664.35 C586.56,664.00 590.00,663.35 590.00,662.91 C590.00,661.84 561.76,663.01 560.55,664.13 C559.43,665.16 571.34,665.28 582.35,664.35 ZM 612.35 663.35 L 620.00 662.71 L 620.00 645.50 L 620.00 628.30 L 606.80 627.71 C599.54,627.39 593.21,627.37 592.72,627.67 C591.88,628.19 591.87,661.71 592.71,663.25 C593.21,664.17 602.12,664.22 612.35,663.35 ZM 647.75 661.39 L 652.00 660.88 L 651.99 646.19 C651.98,638.11 651.70,630.49 651.37,629.25 C650.78,627.05 650.44,627.00 636.88,627.00 L 623.00 627.00 L 623.00 644.33 C623.00,653.87 623.26,661.93 623.58,662.25 C624.19,662.86 640.45,662.28 647.75,661.39 ZM 343.50 622.74 C371.36,610.15 370.00,610.81 370.00,609.72 C370.00,609.19 368.49,606.23 366.64,603.13 C364.79,600.03 352.80,579.95 340.00,558.50 C327.20,537.05 316.57,519.31 316.37,519.08 C316.16,518.85 316.00,544.85 316.00,576.85 L 316.00 635.03 L 319.25 633.63 C321.04,632.86 331.95,627.96 343.50,622.74 ZM 707.76 584.75 L 707.50 534.50 L 698.18 534.35 C693.06,534.27 688.59,533.93 688.26,533.60 C687.30,532.63 689.68,528.93 698.60,517.52 C703.22,511.61 707.00,506.60 707.00,506.39 C707.00,506.18 699.57,506.00 690.48,506.00 L 673.96 506.00 L 674.23 524.75 L 674.50 543.50 L 677.99 543.83 C679.91,544.01 681.82,544.69 682.23,545.33 C682.63,545.97 682.98,554.89 682.98,565.13 C683.00,586.25 683.57,584.96 674.20,584.99 L 669.91 585.00 L 670.59 601.75 C670.96,610.96 671.40,618.65 671.56,618.84 C671.98,619.34 706.36,634.82 707.26,634.92 C707.68,634.96 707.90,612.39 707.76,584.75 ZM 612.50 625.00 C612.16,624.45 609.41,624.00 606.38,624.00 C602.97,624.00 601.12,624.38 601.50,625.00 C601.84,625.55 604.59,626.00 607.62,626.00 C611.03,626.00 612.88,625.62 612.50,625.00 ZM 638.27 624.35 L 642.04 623.73 L 641.77 605.62 L 641.50 587.50 L 632.25 587.21 L 623.00 586.92 L 623.00 605.96 L 623.00 625.00 L 628.75 624.99 C631.91,624.98 636.20,624.70 638.27,624.35 ZM 620.26 620.25 C621.26,612.30 621.09,588.17 620.02,587.51 C619.43,587.15 616.41,586.59 613.32,586.27 L 607.69 585.69 L 608.34 588.97 C608.70,590.77 609.00,598.88 609.00,606.98 L 609.00 621.72 L 613.25 622.74 C619.69,624.29 619.75,624.27 620.26,620.25 ZM 668.31 623.00 C668.57,622.72 668.54,614.29 668.25,604.25 L 667.71 586.00 L 655.86 586.00 L 644.00 586.00 L 644.00 604.33 C644.00,614.42 644.34,623.01 644.75,623.43 C645.55,624.24 667.52,623.83 668.31,623.00 ZM 431.50 583.03 C462.30,569.19 492.56,555.58 498.75,552.78 L 510.00 547.71 L 510.00 526.70 L 510.00 505.69 L 497.84 506.35 C491.16,506.71 447.25,507.00 400.28,507.00 C315.46,507.00 314.87,507.01 315.50,508.99 C315.84,510.08 326.81,528.87 339.86,550.74 C352.91,572.61 366.01,594.64 368.98,599.69 C371.94,604.75 374.63,608.73 374.94,608.54 C375.25,608.35 400.70,596.87 431.50,583.03 ZM 610.69 582.63 C613.22,582.28 616.63,582.00 618.27,582.00 L 621.26 582.00 L 620.88 563.25 L 620.50 544.50 L 623.27 544.18 L 626.04 543.86 L 625.77 525.18 L 625.50 506.50 L 569.50 506.50 L 513.50 506.50 L 513.50 526.99 L 513.50 547.47 L 530.00 554.88 C539.08,558.96 559.78,568.23 576.00,575.49 L 605.50 588.68 L 605.80 585.97 C606.07,583.57 606.63,583.18 610.69,582.63 ZM 626.77 584.29 C625.27,584.06 622.57,584.05 620.77,584.28 C618.97,584.50 620.20,584.68 623.50,584.69 C626.80,584.70 628.27,584.51 626.77,584.29 ZM 640.28 566.75 C640.05,557.26 639.67,548.92 639.44,548.21 C639.14,547.26 636.94,546.99 631.27,547.21 L 623.50 547.50 L 623.78 563.95 C623.93,572.99 624.29,580.62 624.56,580.89 C624.83,581.17 628.31,581.93 632.28,582.59 C636.25,583.25 639.77,583.83 640.10,583.89 C640.43,583.95 640.51,576.24 640.28,566.75 ZM 675.87 582.31 L 681.24 581.70 L 680.63 576.60 C680.29,573.79 680.01,565.98 680.01,559.23 L 680.00 546.96 L 661.25 547.23 L 642.50 547.50 L 642.87 565.00 C643.07,574.62 643.47,582.90 643.77,583.39 C644.28,584.26 664.93,583.57 675.87,582.31 ZM 671.00 538.46 L 671.00 533.00 L 667.00 533.00 L 663.00 533.00 L 663.00 527.50 L 663.00 522.00 L 667.04 522.00 L 671.08 522.00 L 670.79 514.25 L 670.50 506.50 L 649.85 506.23 L 629.21 505.96 L 628.52 520.23 C627.56,539.84 627.89,543.28 630.79,543.96 C632.05,544.26 641.61,544.37 652.04,544.21 L 671.00 543.92 L 671.00 538.46 ZM 253.81 532.75 L 253.50 529.50 L 246.75 529.20 C242.29,529.01 240.00,528.50 240.00,527.70 C240.00,527.03 243.36,522.21 247.46,516.99 L 254.91 507.50 L 244.32 507.21 C238.50,507.06 233.48,507.19 233.16,507.51 C232.84,507.82 232.34,510.20 232.04,512.79 L 231.50 517.50 L 227.25 517.81 L 223.00 518.11 L 223.00 523.06 L 223.00 528.00 L 218.50 528.00 L 214.00 528.00 L 214.00 532.00 L 214.00 536.00 L 234.06 536.00 L 254.13 536.00 L 253.81 532.75 ZM 279.00 533.08 C279.00,528.06 279.89,527.00 284.09,527.00 C287.58,527.00 288.24,526.57 290.62,522.75 C292.07,520.41 294.96,515.97 297.05,512.87 L 300.85 507.24 L 297.18 506.63 C290.54,505.53 276.48,505.92 274.84,507.25 C273.10,508.67 260.00,525.50 260.00,526.33 C260.00,526.62 261.24,527.01 262.75,527.18 C265.21,527.47 265.53,527.95 265.81,531.75 L 266.11 536.00 L 272.56 536.00 L 279.00 536.00 L 279.00 533.08 ZM 745.50 522.94 C752.10,518.64 762.78,511.83 769.24,507.81 C775.70,503.79 780.99,500.23 780.99,499.90 C781.00,499.57 770.31,492.14 757.25,483.40 L 733.50 467.50 L 713.08 467.19 C696.38,466.94 692.84,467.12 693.65,468.19 C710.09,489.93 715.00,497.03 714.97,499.09 C714.95,501.44 712.62,504.78 698.75,522.32 C695.04,527.02 692.00,531.12 692.00,531.43 C692.00,531.75 701.34,531.72 712.75,531.38 L 733.50 530.75 L 745.50 522.94 ZM 263.32 517.95 C272.52,505.67 272.47,506.00 265.15,506.00 L 259.09 506.00 L 253.74 512.75 C250.80,516.46 247.13,521.19 245.58,523.25 L 242.76 527.00 L 249.65 527.00 L 256.54 527.00 L 263.32 517.95 ZM 230.20 509.75 L 230.50 504.50 L 234.75 504.19 C238.96,503.89 239.00,503.85 239.00,500.05 C239.00,495.89 237.93,495.00 232.92,495.00 C230.04,495.00 230.00,494.92 230.00,489.44 L 230.00 483.88 L 226.25 484.19 L 222.50 484.50 L 222.22 498.45 C222.07,506.13 222.17,512.99 222.44,513.70 C222.72,514.42 224.49,515.00 226.42,515.00 L 229.90 515.00 L 230.20 509.75 ZM 710.78 501.26 C711.48,500.31 711.93,498.85 711.77,498.02 C711.50,496.67 689.50,496.47 511.99,496.23 C402.27,496.08 311.56,496.18 310.42,496.45 C308.74,496.86 306.00,500.62 306.00,502.51 C306.00,503.40 334.08,503.49 519.00,503.24 C698.00,503.00 709.58,502.88 710.78,501.26 ZM 302.02 500.43 C302.56,499.02 303.00,497.45 303.00,496.93 C303.00,496.38 290.75,496.00 272.50,496.00 L 242.00 496.00 L 242.00 499.50 L 242.00 503.00 L 271.52 503.00 L 301.05 503.00 L 302.02 500.43 ZM 255.00 492.42 C255.00,492.10 251.62,487.56 247.50,482.34 C243.38,477.12 240.00,472.20 240.00,471.42 C240.00,470.33 241.62,470.00 247.00,470.00 L 254.00 470.00 L 254.00 466.48 L 254.00 462.96 L 234.25 463.23 L 214.50 463.50 L 214.19 467.19 C213.89,470.88 213.89,470.88 218.19,471.19 L 222.50 471.50 L 222.80 476.25 L 223.11 481.00 L 227.55 481.00 L 232.00 481.00 L 232.00 486.33 C232.00,489.27 232.30,491.97 232.67,492.33 C233.48,493.15 255.00,493.23 255.00,492.42 ZM 271.00 492.40 C271.00,491.53 267.30,486.33 261.66,479.26 C256.35,472.62 254.07,471.55 246.57,472.18 L 242.73 472.50 L 249.50 481.00 C253.23,485.67 256.77,490.29 257.38,491.25 C258.24,492.61 259.87,493.00 264.74,493.00 C268.18,493.00 271.00,492.73 271.00,492.40 ZM 302.00 492.60 C302.00,491.30 288.76,473.12 287.44,472.62 C286.56,472.28 284.58,472.00 283.03,472.00 C280.13,472.00 279.04,470.17 279.01,465.25 C279.00,463.15 278.57,463.00 272.50,463.00 L 266.00 463.00 L 266.00 468.00 C266.00,472.92 265.95,473.00 262.91,473.00 L 259.83 473.00 L 262.95 477.25 C264.67,479.59 268.08,484.09 270.54,487.25 L 275.00 493.00 L 288.50 493.00 C295.92,493.00 302.00,492.82 302.00,492.60 ZM 311.48 490.03 C312.81,487.46 312.98,480.27 312.76,435.79 L 312.50 384.52 L 281.00 367.74 C221.77,336.19 223.00,336.80 222.98,338.74 C222.82,351.29 223.06,459.39 223.25,459.58 C223.39,459.71 230.77,460.15 239.66,460.55 L 255.81 461.27 L 256.46 465.58 C257.13,470.03 259.09,471.67 262.30,470.44 C263.40,470.02 263.78,468.83 263.56,466.53 C263.05,461.30 263.79,460.88 273.09,461.21 L 281.50 461.50 L 281.81 465.75 C282.11,469.94 282.17,470.00 285.88,470.00 C289.56,470.00 289.80,470.25 297.39,481.50 C303.68,490.82 305.60,493.00 307.55,493.00 C309.20,493.00 310.43,492.07 311.48,490.03 ZM 510.18 490.75 C510.36,489.51 510.35,484.76 510.17,480.19 L 509.85 471.88 L 502.17 468.36 C497.95,466.43 474.92,456.29 451.00,445.84 C427.08,435.38 398.27,422.77 387.00,417.81 C375.73,412.85 366.00,408.58 365.38,408.34 C364.76,408.09 362.10,411.62 359.46,416.19 C350.28,432.10 325.73,473.55 321.07,481.00 C315.88,489.30 314.85,491.51 315.74,492.40 C316.06,492.73 359.88,493.00 413.10,493.00 L 509.86 493.00 L 510.18 490.75 ZM 625.99 476.75 C625.98,467.81 625.71,459.51 625.38,458.30 C624.93,456.60 623.78,455.94 620.40,455.43 L 616.00 454.77 L 616.00 441.39 C616.00,433.84 615.60,428.00 615.07,428.00 C614.56,428.00 591.95,437.72 564.82,449.60 C537.70,461.48 514.94,471.42 514.25,471.70 C513.36,472.07 513.00,475.23 513.00,482.61 L 513.00 493.00 L 569.50 493.00 L 626.00 493.00 L 625.99 476.75 ZM 670.00 486.00 L 670.00 479.00 L 665.50 479.00 L 661.00 479.00 L 661.00 474.11 L 661.00 469.23 L 665.50 468.55 L 670.00 467.88 L 670.00 461.94 L 670.00 456.00 L 656.75 455.99 C649.46,455.99 640.58,455.74 637.00,455.44 C633.42,455.14 629.89,455.31 629.14,455.82 C628.04,456.58 627.93,460.12 628.52,474.87 L 629.26 493.00 L 649.63 493.00 L 670.00 493.00 L 670.00 486.00 ZM 708.00 492.71 C708.00,492.55 703.50,486.36 698.00,478.96 C692.50,471.56 688.16,465.05 688.35,464.50 C688.56,463.89 692.49,463.64 698.35,463.85 L 708.00 464.19 L 708.00 425.60 C708.00,398.36 707.68,387.00 706.91,387.00 C705.54,387.00 670.30,402.64 667.25,404.60 C665.54,405.70 665.00,406.99 665.00,410.02 L 665.00 414.00 L 670.42 414.00 C679.40,414.00 679.01,413.30 678.89,429.36 C678.83,437.14 678.49,446.20 678.14,449.50 C677.58,454.73 677.21,455.54 675.25,455.82 C673.01,456.14 673.00,456.22 673.00,474.57 L 673.00 493.00 L 690.50 493.00 C700.12,493.00 708.00,492.87 708.00,492.71 ZM 325.58 465.92 C346.54,430.78 360.22,406.89 359.71,406.37 C358.94,405.60 317.69,387.00 316.75,387.00 C316.34,387.00 316.00,408.23 316.00,434.17 C316.00,460.11 316.22,481.11 316.49,480.84 C316.76,480.57 320.86,473.86 325.58,465.92 ZM 546.00 454.68 C562.78,447.27 585.28,437.43 596.00,432.80 C614.56,424.80 615.52,424.25 615.84,421.45 C616.03,419.83 616.70,418.17 617.34,417.77 C617.98,417.36 614.56,417.02 609.75,417.02 C602.12,417.00 600.99,416.78 600.91,415.25 C600.86,414.29 600.90,406.01 600.99,396.86 C601.10,385.78 600.79,379.99 600.07,379.54 C599.47,379.17 595.95,378.31 592.24,377.63 L 585.50 376.38 L 585.23 360.79 C584.90,342.45 587.06,344.47 566.72,343.43 C558.44,343.01 552.67,342.28 552.25,341.61 C551.86,341.00 551.69,334.35 551.87,326.83 L 552.19 313.17 L 546.85 312.61 C537.58,311.64 514.53,310.34 513.75,310.74 C513.34,310.95 513.00,346.69 513.00,390.17 C513.00,453.02 513.26,469.11 514.25,468.68 C514.94,468.39 529.22,462.09 546.00,454.68 ZM 510.07 389.00 C509.91,324.57 509.63,310.37 508.53,309.76 C507.54,309.20 507.33,307.43 507.73,303.00 C508.03,299.70 508.10,296.97 507.89,296.94 C507.67,296.91 502.33,296.50 496.00,296.03 L 484.50 295.18 L 463.50 306.22 C451.95,312.29 434.17,321.73 424.00,327.19 L 405.50 337.13 L 393.54 357.81 C386.96,369.19 378.03,384.49 373.69,391.81 C369.35,399.14 365.95,405.29 366.15,405.49 C366.35,405.68 395.31,418.44 430.51,433.84 C465.70,449.23 497.42,463.19 501.00,464.85 C504.58,466.51 508.13,467.79 508.89,467.69 C510.06,467.53 510.25,455.35 510.07,389.00 ZM 637.36 449.25 C637.70,447.19 637.98,438.86 637.99,430.75 L 638.00 416.00 L 635.25 416.01 C633.74,416.01 630.92,416.42 629.00,416.91 C627.08,417.41 623.81,418.10 621.75,418.45 L 618.00 419.09 L 618.00 435.38 C618.00,444.34 618.30,451.97 618.67,452.33 C619.03,452.70 623.25,453.00 628.04,453.00 L 636.74 453.00 L 637.36 449.25 ZM 676.00 435.16 L 676.00 417.31 L 658.84 416.70 C649.40,416.36 641.30,416.31 640.84,416.60 C640.38,416.88 640.00,425.19 640.00,435.06 L 640.00 453.00 L 658.00 453.00 L 676.00 453.00 L 676.00 435.16 ZM 621.73 416.40 C621.40,416.06 620.53,416.03 619.81,416.32 C619.01,416.64 619.25,416.87 620.42,416.92 C621.47,416.96 622.06,416.73 621.73,416.40 ZM 615.75 413.37 C617.98,412.77 618.00,412.60 618.00,394.41 L 618.00 376.05 L 614.75 376.68 C612.96,377.03 609.70,377.82 607.50,378.45 L 603.50 379.59 L 603.23 396.79 L 602.95 414.00 L 608.23 413.99 C611.13,413.98 614.51,413.70 615.75,413.37 ZM 662.42 409.75 C662.72,407.41 663.09,398.98 663.23,391.00 L 663.50 376.50 L 648.90 376.22 L 634.30 375.95 L 633.65 383.62 C633.29,387.85 633.00,396.41 633.00,402.65 L 633.00 414.00 L 647.44 414.00 L 661.88 414.00 L 662.42 409.75 ZM 631.00 394.50 L 631.00 376.00 L 625.50 376.00 L 620.00 376.00 L 620.00 394.50 L 620.00 413.00 L 625.50 413.00 L 631.00 413.00 L 631.00 394.50 ZM 374.26 383.00 C380.53,372.27 388.62,358.55 392.24,352.50 C395.85,346.45 398.69,341.38 398.55,341.23 C398.41,341.09 383.05,349.11 364.40,359.07 C320.73,382.39 319.00,383.34 319.00,384.11 C319.00,385.14 361.43,403.83 362.18,403.13 C362.55,402.78 367.99,393.73 374.26,383.00 ZM 685.61 392.87 C695.75,388.40 704.24,384.42 704.49,384.02 C704.87,383.39 651.01,354.00 649.48,354.00 C649.18,354.00 649.06,358.39 649.21,363.75 L 649.50 373.50 L 657.75 373.79 C663.29,373.99 666.04,374.48 666.13,375.29 C666.20,375.96 666.15,382.01 666.02,388.75 C665.90,395.49 666.10,401.00 666.49,401.00 C666.87,401.00 675.47,397.34 685.61,392.87 ZM 349.41 363.88 C368.16,353.91 387.63,343.55 392.67,340.85 L 401.84 335.95 L 419.23 305.72 L 436.62 275.50 L 435.14 249.70 C433.88,227.46 433.87,223.71 435.09,222.52 C435.86,221.76 441.45,218.14 447.50,214.48 L 458.50 207.81 L 472.40 208.84 C481.88,209.54 486.56,210.28 487.13,211.18 C487.59,211.91 487.98,217.52 487.98,223.66 L 488.00 234.82 L 496.25 235.50 C500.79,235.88 505.80,236.03 507.38,235.84 L 510.26 235.50 L 510.52 208.82 C510.66,194.15 510.49,180.83 510.14,179.23 L 509.50 176.31 L 487.00 188.74 C474.62,195.57 451.00,208.61 434.50,217.71 C259.15,314.45 225.07,333.45 225.33,334.36 C225.46,334.83 231.18,338.18 238.04,341.79 C244.89,345.40 264.67,355.91 282.00,365.14 C299.33,374.37 313.91,381.94 314.41,381.96 C314.91,381.98 330.66,373.85 349.41,363.88 ZM 745.10 363.19 C764.57,352.85 784.65,342.20 789.71,339.53 C794.78,336.87 798.70,334.32 798.42,333.88 C797.88,332.99 795.78,331.81 740.00,300.98 C718.83,289.28 689.12,272.84 674.00,264.47 C646.34,249.14 537.09,188.92 522.88,181.16 C518.68,178.87 514.75,177.00 514.13,177.00 C513.32,177.00 513.00,185.26 513.00,206.40 L 513.00 235.80 L 518.75 236.37 C521.91,236.68 530.80,237.22 538.50,237.58 C547.20,237.98 552.78,238.65 553.23,239.36 C553.64,239.99 553.98,246.01 553.98,252.75 L 554.00 265.00 L 564.35 265.00 C570.04,265.00 578.20,265.30 582.49,265.66 L 590.28 266.32 L 589.76 281.66 C589.39,292.64 589.57,297.04 590.37,297.13 C590.99,297.20 598.25,297.54 606.50,297.88 L 621.50 298.50 L 621.34 316.16 C621.15,336.91 619.56,334.97 636.71,334.99 C649.81,335.00 650.00,335.14 650.00,344.88 L 650.00 350.89 L 660.25 356.33 C665.89,359.32 679.05,366.31 689.50,371.87 C699.95,377.42 708.77,381.98 709.10,381.98 C709.44,381.99 725.64,373.54 745.10,363.19 ZM 608.50 376.00 C610.11,375.31 609.82,375.15 607.00,375.17 C605.08,375.19 602.38,375.56 601.00,376.00 C598.85,376.69 599.06,376.80 602.50,376.83 C604.70,376.85 607.40,376.47 608.50,376.00 ZM 611.03 373.01 L 617.56 373.00 L 617.59 355.12 L 617.62 337.23 L 612.56 336.63 C609.78,336.29 603.11,336.01 597.75,336.01 L 588.00 336.00 L 588.00 355.15 L 588.00 374.30 L 596.25 373.65 C600.79,373.30 607.44,373.01 611.03,373.01 ZM 646.77 355.75 L 647.05 338.00 L 642.68 338.00 C640.27,338.00 634.19,337.71 629.15,337.35 L 620.00 336.70 L 620.00 354.78 C620.00,371.15 620.17,372.90 621.75,373.33 C622.71,373.59 628.67,373.73 635.00,373.65 L 646.50 373.50 L 646.77 355.75 ZM 585.00 339.13 C585.00,336.59 584.57,336.19 581.25,335.64 C579.19,335.30 572.21,335.02 565.75,335.01 L 554.00 335.00 L 554.00 337.41 C554.00,339.71 554.36,339.85 562.25,340.42 C566.79,340.75 572.30,341.17 574.50,341.34 C585.20,342.20 585.00,342.24 585.00,339.13 ZM 619.25 318.25 C619.53,309.59 619.48,302.20 619.13,301.84 C618.78,301.47 611.64,300.85 603.25,300.46 L 588.00 299.74 L 588.00 316.31 L 588.00 332.88 L 591.75 333.27 C593.81,333.49 600.73,333.74 607.12,333.83 L 618.73 334.00 L 619.25 318.25 ZM 585.37 330.75 C585.70,329.51 585.98,322.15 585.99,314.38 L 586.00 300.26 L 582.25 299.64 C580.19,299.30 572.99,299.02 566.25,299.01 L 554.00 299.00 L 554.00 316.00 L 554.00 333.00 L 569.38 333.00 C584.49,333.00 584.78,332.96 585.37,330.75 ZM 450.50 309.94 C478.63,295.24 478.68,295.20 475.41,294.83 L 472.50 294.50 L 472.21 286.01 C472.04,281.33 471.59,277.23 471.21,276.88 C470.82,276.53 463.97,275.94 455.99,275.57 L 441.49 274.90 L 439.89 277.70 C439.02,279.24 432.16,291.14 424.65,304.15 C417.15,317.16 410.70,328.61 410.33,329.58 C409.85,330.83 413.64,329.26 423.07,324.31 C430.46,320.43 442.80,313.96 450.50,309.94 ZM 551.80 304.25 L 551.50 298.50 L 535.50 297.79 L 519.50 297.08 L 515.75 301.29 C511.14,306.48 511.03,307.96 515.25,308.13 C517.04,308.20 523.45,308.57 529.50,308.96 C535.55,309.34 543.11,309.74 546.30,309.83 L 552.10 310.00 L 551.80 304.25 ZM 517.00 293.30 C517.00,291.49 516.66,290.00 516.25,290.00 C514.37,290.00 510.00,297.10 510.00,300.14 L 510.00 303.39 L 513.50 300.00 C516.11,297.47 517.00,295.77 517.00,293.30 ZM 587.45 283.36 C588.03,272.46 587.91,269.56 586.84,268.88 C586.10,268.41 581.86,268.02 577.40,268.02 C572.95,268.01 565.86,267.71 561.65,267.35 L 554.00 266.71 L 554.00 281.31 L 554.00 295.91 L 561.25 296.26 C565.24,296.45 572.60,296.69 577.62,296.80 L 586.73 297.00 L 587.45 283.36 ZM 552.00 281.50 L 552.00 267.00 L 547.66 267.00 C545.27,267.00 537.83,266.71 531.13,266.34 L 518.94 265.69 L 519.22 280.09 L 519.50 294.50 L 527.50 295.07 C531.90,295.38 539.21,295.72 543.75,295.82 L 552.00 296.00 L 552.00 281.50 ZM 511.20 291.31 C512.74,289.84 514.00,288.31 514.00,287.92 C514.00,287.53 507.49,286.88 499.52,286.48 L 485.05 285.76 L 481.60 288.63 C479.70,290.21 478.11,291.82 478.07,292.21 C478.01,292.87 484.25,293.29 501.45,293.80 C507.76,293.98 508.64,293.76 511.20,291.31 ZM 480.75 286.11 C482.74,284.40 483.00,283.24 483.00,276.09 C483.00,271.64 482.68,268.00 482.29,268.00 C481.90,268.00 479.88,269.67 477.79,271.70 C474.39,275.03 474.00,275.92 474.01,280.45 C474.02,283.23 474.30,286.50 474.62,287.73 C475.27,290.14 476.38,289.85 480.75,286.11 ZM 517.00 275.00 L 517.00 266.00 L 509.25 265.99 C504.99,265.99 497.79,265.70 493.25,265.35 L 485.00 264.70 L 485.00 273.79 L 485.00 282.87 L 487.75 283.28 C489.26,283.51 496.46,283.77 503.75,283.85 L 517.00 284.00 L 517.00 275.00 ZM 476.25 269.69 C478.31,267.89 480.00,266.10 480.00,265.71 C480.00,265.32 475.27,265.00 469.50,265.00 L 459.00 265.00 L 459.00 269.00 L 459.00 273.00 L 465.75 272.98 C471.93,272.96 472.82,272.69 476.25,269.69 ZM 551.00 253.12 L 551.00 241.23 L 543.75 240.64 C539.76,240.32 532.56,239.76 527.75,239.41 L 519.00 238.76 L 519.00 251.35 L 519.00 263.95 L 533.75 264.25 C541.86,264.42 549.06,264.66 549.75,264.78 C550.69,264.95 551.00,262.07 551.00,253.12 ZM 516.78 251.34 L 517.06 239.18 L 509.78 238.62 C505.78,238.31 498.56,237.87 493.75,237.64 L 485.00 237.22 L 485.00 250.08 L 485.00 262.94 L 497.25 263.28 C503.99,263.46 511.08,263.59 513.00,263.56 L 516.50 263.50 L 516.78 251.34 ZM 482.78 249.73 C482.99,240.03 482.75,236.86 481.78,236.56 C481.08,236.34 475.44,235.95 469.25,235.70 L 458.00 235.24 L 458.00 246.56 C458.00,252.78 458.44,259.04 458.99,260.47 L 459.98 263.07 L 471.24 262.78 L 482.50 262.50 L 482.78 249.73 ZM 638.90 532.80 C638.84,532.64 638.64,529.91 638.45,526.75 L 638.10 521.00 L 643.50 521.00 C648.85,521.00 648.92,521.04 649.54,524.37 C649.89,526.22 650.02,528.81 649.84,530.12 C649.54,532.23 648.92,532.53 644.25,532.80 C641.36,532.97 638.95,532.97 638.90,532.80 ZM 636.86 479.91 C636.34,479.59 636.05,475.54 636.21,470.91 L 636.50 462.50 L 641.79 462.20 L 647.08 461.89 L 646.79 471.18 L 646.50 480.46 L 642.16 480.48 C639.77,480.49 637.39,480.24 636.86,479.91 Z" fill="rgba(0,0,0,1)"/>
</g>
</svg>