<svg xmlns="http://www.w3.org/2000/svg" width="1024" height="1024" viewBox="0 0 1024 1024">
<g>
<path d="M 486.17 890.96 C456.52,888.11 432.66,880.77 426.57,872.63 C424.90,870.40 424.44,868.06 424.17,860.68 C423.87,852.39 424.07,851.16 426.19,848.00 C427.55,845.98 430.99,843.20 434.31,841.43 L 440.07 838.36 L 440.28 798.23 L 440.50 758.11 L 443.86 754.64 C445.71,752.73 449.94,749.95 453.26,748.46 C459.14,745.83 479.72,741.03 485.25,741.01 C487.67,741.00 488.01,740.61 488.06,737.75 C488.15,733.18 488.16,508.48 488.07,503.00 L 488.00 498.49 L 481.25 496.17 C444.53,483.54 418.92,444.33 421.39,404.50 C422.80,381.70 430.54,363.92 446.24,347.39 C462.15,330.64 481.91,321.62 505.50,320.34 C532.12,318.90 554.36,327.36 573.00,346.00 C594.50,367.50 603.51,395.31 598.47,424.62 C596.53,435.91 594.73,441.51 589.78,451.61 C579.56,472.49 558.91,490.32 537.89,496.43 L 532.40 498.03 L 532.48 619.26 L 532.55 740.50 L 535.53 740.79 C549.34,742.13 567.35,747.22 574.09,751.68 C581.14,756.34 581.00,755.38 581.00,798.82 L 581.00 837.74 L 587.59 841.59 C591.27,843.74 594.80,846.65 595.59,848.17 C596.53,849.99 597.00,854.24 597.00,860.87 C597.00,870.15 596.82,871.06 594.40,873.93 C589.01,880.34 572.27,886.23 550.00,889.56 C537.52,891.42 499.63,892.25 486.17,890.96 ZM 538.50 888.97 C553.29,887.58 570.85,883.86 580.54,880.07 C592.58,875.36 595.00,872.68 595.00,864.07 L 595.00 859.01 L 590.53 862.42 C578.64,871.50 553.75,876.81 518.88,877.70 C475.14,878.82 442.21,872.26 428.13,859.63 L 425.76 857.50 L 426.19 863.74 C426.70,870.97 428.71,873.78 436.11,877.54 C444.79,881.96 467.20,887.32 483.50,888.87 C496.53,890.11 525.74,890.16 538.50,888.97 ZM 546.78 874.04 C570.79,870.50 585.91,865.29 591.90,858.46 C597.18,852.45 595.45,847.74 586.09,842.65 L 581.00 839.88 L 581.00 847.54 C581.00,854.85 580.85,855.35 577.75,858.44 C568.80,867.36 538.75,872.74 503.61,871.71 C482.90,871.10 470.55,869.42 458.33,865.52 C443.79,860.89 440.42,857.40 440.64,847.21 C440.77,840.92 440.74,840.85 438.32,841.46 C431.75,843.10 425.61,849.81 426.74,854.10 C427.01,855.14 428.77,857.35 430.65,859.00 C437.93,865.39 449.94,869.78 468.88,872.97 C484.93,875.68 484.72,875.66 510.50,875.84 C528.74,875.96 536.25,875.59 546.78,874.04 ZM 541.01 868.45 C552.42,866.86 566.93,863.12 572.15,860.42 C576.30,858.28 579.00,855.35 579.00,852.99 C579.00,851.13 578.72,851.19 575.04,853.85 C567.47,859.34 551.02,863.10 526.01,865.07 C496.32,867.40 457.12,861.65 446.25,853.37 C443.18,851.04 443.00,851.01 443.00,852.88 C443.00,859.18 464.51,867.30 486.50,869.30 C498.39,870.38 530.81,869.88 541.01,868.45 ZM 543.37 861.53 C559.92,858.98 570.91,855.20 576.25,850.20 L 579.00 847.63 L 579.00 807.74 L 579.00 767.86 L 576.04 769.97 C568.45,775.38 555.24,779.03 534.50,781.46 C519.25,783.25 508.64,783.38 493.50,781.98 C470.10,779.82 455.42,776.17 446.79,770.36 L 442.00 767.14 L 442.00 806.69 L 442.00 846.24 L 445.75 849.96 C451.89,856.07 464.33,859.81 487.50,862.52 C501.98,864.22 529.05,863.74 543.37,861.53 ZM 540.41 778.88 C557.98,776.62 573.79,770.99 577.52,765.67 C580.87,760.88 578.03,755.57 569.89,751.44 C563.01,747.96 547.89,744.06 539.00,743.48 L 531.50 742.99 L 540.24 745.29 C545.04,746.55 550.22,748.51 551.74,749.65 C554.23,751.51 554.53,752.38 554.79,758.76 C555.07,765.49 554.96,765.89 552.29,767.74 C538.45,777.32 493.05,778.75 473.75,770.21 C467.16,767.30 466.00,765.67 466.00,759.35 C466.00,754.65 466.41,753.44 468.81,751.03 C470.45,749.40 474.11,747.49 477.56,746.48 C488.39,743.30 488.88,742.96 481.78,743.52 C472.92,744.22 457.59,748.16 451.26,751.37 C445.89,754.09 442.00,758.14 442.00,761.00 C442.00,769.23 464.10,777.70 491.50,779.99 C503.02,780.95 528.85,780.36 540.41,778.88 ZM 537.50 771.58 C546.98,769.36 552.41,766.23 552.81,762.75 L 553.13 760.06 L 548.72 762.01 C539.05,766.28 531.45,767.38 511.50,767.40 C490.80,767.42 481.65,766.06 472.75,761.66 C468.43,759.52 468.00,759.47 468.00,761.07 C468.00,764.35 469.23,766.08 472.87,767.90 C476.54,769.74 487.59,772.61 494.00,773.39 C502.09,774.37 530.68,773.18 537.50,771.58 ZM 539.50 763.09 C548.77,760.64 552.50,758.29 552.50,754.89 C552.50,752.98 551.39,751.96 547.00,749.83 C543.97,748.36 539.36,746.87 536.75,746.52 L 532.00 745.88 L 531.98 749.69 C531.96,754.81 531.21,755.73 525.16,758.03 C521.15,759.55 517.54,759.99 509.24,759.98 C493.54,759.95 486.88,756.36 488.40,748.77 C488.99,745.79 488.98,745.78 485.25,746.44 C476.01,748.06 468.00,752.06 468.00,755.04 C468.00,757.26 472.37,760.06 479.02,762.08 C489.96,765.40 495.10,765.91 514.00,765.54 C527.79,765.27 533.20,764.75 539.50,763.09 ZM 522.00 756.87 C528.46,755.41 530.00,753.65 530.00,747.73 C530.00,743.06 529.87,742.80 527.75,743.41 C516.66,746.56 511.81,747.17 501.20,746.78 L 489.90 746.37 L 490.20 749.83 C490.61,754.56 494.02,756.88 502.04,757.88 C509.04,758.76 514.95,758.46 522.00,756.87 ZM 523.85 742.45 C528.63,740.83 531.09,738.76 529.79,737.46 C529.54,737.20 525.77,737.93 521.42,739.07 C513.03,741.26 500.00,742.03 493.75,740.70 C490.67,740.05 490.00,740.19 490.00,741.49 C490.00,744.22 494.13,745.00 506.50,744.63 C514.63,744.38 520.23,743.68 523.85,742.45 ZM 511.85 739.04 C523.43,737.37 532.08,733.74 529.84,731.50 C529.61,731.28 526.07,731.98 521.96,733.06 C516.22,734.58 511.73,734.99 502.50,734.84 C492.09,734.68 490.46,734.87 490.18,736.29 C489.60,739.30 500.51,740.68 511.85,739.04 ZM 524.32 730.57 C529.49,729.01 532.18,726.85 530.74,725.41 C530.47,725.14 526.70,725.84 522.37,726.98 C514.42,729.07 498.30,729.87 492.66,728.45 C490.59,727.93 490.00,728.15 490.00,729.42 C490.00,730.33 491.01,731.50 492.25,732.03 C495.83,733.56 517.66,732.57 524.32,730.57 ZM 518.50 725.80 C524.78,724.46 531.00,722.04 531.00,720.95 C531.00,719.09 528.86,719.13 520.99,721.12 C514.39,722.79 510.47,723.14 501.37,722.85 C493.00,722.58 490.00,722.80 490.00,723.68 C490.00,725.56 492.06,726.43 498.00,727.05 C504.44,727.73 511.51,727.29 518.50,725.80 ZM 524.49 718.34 C528.60,717.03 530.60,715.84 530.84,714.57 C531.14,713.06 530.77,712.83 528.85,713.35 C518.31,716.22 509.82,717.23 500.29,716.74 C490.82,716.26 490.00,716.36 490.00,718.03 C490.00,720.62 491.92,720.92 506.00,720.57 C514.88,720.35 520.24,719.71 524.49,718.34 ZM 524.50 712.31 C528.23,711.13 530.50,709.87 530.50,708.96 C530.50,707.14 528.12,707.24 517.00,709.51 C510.85,710.76 505.93,711.09 499.19,710.70 C490.95,710.22 489.92,710.34 490.20,711.78 C490.69,714.32 494.56,714.96 507.00,714.56 C514.57,714.32 520.55,713.55 524.50,712.31 ZM 522.50 706.52 C528.69,704.86 531.68,702.91 530.64,701.22 C530.27,700.63 527.40,701.04 523.27,702.26 C518.11,703.79 513.34,704.30 503.23,704.39 C492.03,704.48 490.00,704.73 490.24,705.99 C490.40,706.81 491.87,707.80 493.51,708.19 C498.25,709.31 515.92,708.29 522.50,706.52 ZM 522.50 700.49 C525.80,699.62 529.12,698.30 529.87,697.55 C532.63,694.81 530.02,694.35 522.79,696.31 C517.47,697.75 512.04,698.31 502.72,698.39 C491.95,698.48 489.99,698.73 490.24,700.00 C490.39,700.83 492.09,701.81 494.01,702.19 C499.35,703.24 515.78,702.26 522.50,700.49 ZM 518.92 695.03 C527.66,693.23 532.32,690.99 530.71,689.38 C530.34,689.01 526.32,689.54 521.77,690.57 C516.29,691.80 509.53,692.43 501.72,692.44 C491.76,692.46 489.99,692.69 490.23,693.97 C490.88,697.31 505.28,697.84 518.92,695.03 ZM 521.68 688.52 C528.87,686.87 532.17,684.77 530.39,682.99 C529.82,682.42 527.54,682.68 524.48,683.68 C520.86,684.87 515.45,685.34 504.72,685.41 C490.55,685.50 489.94,685.58 490.22,687.49 C490.40,688.78 491.57,689.74 493.50,690.19 C498.12,691.28 513.68,690.35 521.68,688.52 ZM 524.80 681.56 C529.56,680.06 532.14,677.81 530.73,676.40 C530.45,676.11 527.80,676.57 524.86,677.42 C517.16,679.63 503.40,680.91 497.00,680.00 C491.11,679.17 489.35,679.86 490.38,682.56 C490.97,684.07 492.53,684.20 505.27,683.74 C514.43,683.41 521.39,682.63 524.80,681.56 ZM 525.00 675.40 C528.68,674.13 530.61,672.88 530.84,671.62 C531.15,670.00 530.79,669.84 528.35,670.46 C517.58,673.21 510.45,674.11 501.27,673.89 C495.64,673.75 490.69,673.98 490.27,674.40 C489.85,674.82 490.40,675.84 491.50,676.66 C494.46,678.88 517.45,678.02 525.00,675.40 ZM 524.49 669.32 C528.61,668.02 530.60,666.84 530.84,665.58 C531.14,664.02 530.75,663.83 528.35,664.37 C513.94,667.61 508.85,668.21 499.75,667.72 C491.95,667.29 490.00,667.46 490.00,668.54 C490.00,671.42 493.42,672.08 506.00,671.65 C514.45,671.35 520.44,670.60 524.49,669.32 ZM 522.00 663.69 C527.92,662.17 530.50,661.04 530.50,660.00 C530.50,658.09 527.88,658.18 517.04,660.48 C510.77,661.80 506.15,662.12 499.29,661.71 C491.58,661.25 490.00,661.41 490.00,662.61 C490.00,664.97 493.89,665.87 504.00,665.88 C510.53,665.88 516.16,665.19 522.00,663.69 ZM 523.29 657.19 C530.93,655.00 531.47,654.67 530.70,652.66 C530.24,651.46 528.95,651.54 522.33,653.22 C516.83,654.62 510.85,655.24 502.22,655.32 C491.91,655.41 489.98,655.67 490.22,656.92 C490.38,657.74 491.63,658.75 493.01,659.17 C497.34,660.49 516.05,659.27 523.29,657.19 ZM 512.83 652.99 C525.43,651.35 532.87,648.47 530.50,646.16 C529.85,645.52 526.89,645.90 522.00,647.23 C516.52,648.73 511.20,649.31 502.22,649.39 C491.89,649.48 489.99,649.74 490.23,651.00 C490.73,653.61 501.05,654.52 512.83,652.99 ZM 520.75 645.49 C528.45,643.74 532.11,641.73 530.50,640.16 C529.85,639.52 526.89,639.88 522.00,641.19 C516.54,642.66 511.16,643.22 502.21,643.28 C491.61,643.35 489.96,643.57 490.22,644.93 C490.85,648.21 507.43,648.52 520.75,645.49 ZM 520.82 639.46 C528.50,637.68 531.00,636.43 531.00,634.35 C531.00,633.22 530.36,632.92 528.75,633.29 C513.80,636.77 510.82,637.15 500.71,636.82 C490.37,636.48 489.93,636.55 490.21,638.48 C490.43,639.98 491.53,640.67 494.50,641.17 C499.97,642.08 513.17,641.23 520.82,639.46 ZM 524.35 632.43 C529.69,630.82 532.16,628.82 530.66,627.33 C530.34,627.00 527.02,627.55 523.29,628.53 C518.88,629.70 511.95,630.43 503.52,630.62 C490.78,630.90 487.66,631.80 491.13,634.17 C493.36,635.70 517.71,634.42 524.35,632.43 ZM 521.50 627.00 C528.91,624.95 531.11,623.79 530.74,622.11 C530.54,621.22 529.73,620.65 528.94,620.83 C528.15,621.02 524.80,621.90 521.50,622.79 C517.51,623.87 511.23,624.42 502.75,624.45 C493.52,624.49 490.00,624.83 490.00,625.70 C490.00,628.42 493.57,629.09 505.50,628.60 C512.10,628.33 519.30,627.61 521.50,627.00 ZM 522.50 620.47 C529.23,618.62 531.11,617.45 530.39,615.58 C530.01,614.58 528.43,614.73 523.20,616.29 C518.35,617.73 512.93,618.35 503.53,618.54 C490.57,618.81 487.16,619.85 492.17,622.01 C495.50,623.44 515.36,622.43 522.50,620.47 ZM 522.22 614.49 C528.49,612.89 532.06,610.73 530.70,609.37 C530.38,609.05 525.07,609.79 518.89,611.02 C510.34,612.72 505.55,613.14 498.83,612.75 C491.91,612.36 490.00,612.54 490.00,613.58 C490.00,616.36 493.45,617.09 504.50,616.65 C510.55,616.41 518.53,615.44 522.22,614.49 ZM 514.39 610.02 C523.78,608.49 531.00,606.10 531.00,604.53 C531.00,602.17 529.80,602.13 522.00,604.23 C516.49,605.71 511.24,606.26 502.25,606.30 C491.27,606.34 490.00,606.53 490.00,608.10 C490.00,609.07 490.79,610.06 491.75,610.31 C495.01,611.16 508.47,610.99 514.39,610.02 ZM 521.13 602.40 C528.48,600.73 532.09,598.71 530.50,597.16 C529.85,596.52 526.89,596.87 522.00,598.17 C515.02,600.02 496.16,601.12 492.00,599.93 C491.02,599.65 490.50,600.20 490.50,601.50 C490.50,603.06 491.39,603.65 494.50,604.17 C500.01,605.09 513.14,604.22 521.13,602.40 ZM 521.25 596.32 C528.87,594.74 532.22,592.80 530.41,591.03 C529.88,590.51 527.37,590.70 524.39,591.48 C516.33,593.59 503.07,594.91 496.25,594.29 C490.92,593.81 490.00,593.96 490.00,595.34 C490.00,599.14 505.32,599.62 521.25,596.32 ZM 524.71 589.58 C527.57,588.68 530.18,587.51 530.52,586.97 C531.97,584.62 529.47,584.40 521.28,586.16 C515.18,587.46 509.16,587.98 501.56,587.84 C493.34,587.69 490.51,587.96 490.19,588.93 C489.95,589.65 490.37,590.65 491.13,591.17 C493.31,592.66 518.71,591.46 524.71,589.58 ZM 523.90 583.63 C530.03,581.89 531.93,580.53 530.37,578.97 C529.67,578.27 526.68,578.59 520.92,579.97 C515.07,581.37 509.07,581.99 501.25,581.99 C492.18,582.00 490.00,582.28 490.00,583.43 C490.00,584.21 490.79,585.09 491.75,585.37 C495.20,586.40 518.58,585.13 523.90,583.63 ZM 521.20 577.90 C529.17,576.03 532.47,574.13 530.75,572.41 C530.47,572.14 525.58,572.87 519.87,574.04 C512.18,575.63 506.98,576.08 499.75,575.80 C491.09,575.47 490.00,575.62 490.00,577.13 C490.00,579.55 491.27,579.83 502.38,579.92 C509.15,579.98 515.07,579.34 521.20,577.90 ZM 522.44 571.55 C529.15,569.72 531.12,568.46 530.36,566.50 C529.92,565.36 529.22,565.36 525.97,566.51 C519.55,568.77 506.23,570.30 497.87,569.73 C490.71,569.24 490.00,569.35 490.00,571.02 C490.00,572.03 490.79,573.09 491.75,573.38 C495.22,574.41 516.63,573.13 522.44,571.55 ZM 522.50 565.47 C529.23,563.61 531.57,562.17 530.15,560.75 C529.57,560.17 526.23,560.51 521.36,561.64 C516.17,562.84 509.51,563.47 501.75,563.48 C491.43,563.50 490.00,563.70 490.00,565.18 C490.00,566.10 490.79,567.09 491.75,567.38 C495.24,568.42 516.63,567.09 522.50,565.47 ZM 517.18 560.48 C527.45,558.34 531.00,557.06 531.00,555.48 C531.00,553.18 529.77,553.14 522.00,555.23 C516.56,556.68 511.13,557.26 502.25,557.33 C491.38,557.42 490.00,557.62 490.00,559.14 C490.00,560.13 490.96,561.05 492.25,561.29 C497.52,562.31 510.41,561.89 517.18,560.48 ZM 521.13 553.39 C528.79,551.66 532.09,549.74 530.38,548.00 C529.55,547.16 527.89,547.26 523.88,548.41 C516.37,550.57 502.34,551.99 495.52,551.29 C490.27,550.75 489.83,550.86 490.16,552.60 C490.42,554.00 491.69,554.67 495.01,555.16 C501.03,556.04 513.00,555.23 521.13,553.39 ZM 519.00 547.50 C528.38,545.59 531.22,544.33 530.76,542.25 C530.55,541.29 529.73,540.67 528.94,540.87 C528.15,541.07 525.25,541.91 522.50,542.73 C519.58,543.60 511.90,544.38 504.00,544.61 C493.18,544.92 490.44,545.29 490.18,546.46 C489.88,547.87 491.03,548.36 497.00,549.36 C500.56,549.96 511.39,549.04 519.00,547.50 ZM 523.97 540.43 C529.21,538.96 532.03,536.70 530.53,535.19 C530.24,534.91 526.74,535.49 522.75,536.49 C518.51,537.56 510.21,538.50 502.75,538.77 C492.88,539.13 490.00,539.54 490.00,540.60 C490.00,544.18 510.99,544.07 523.97,540.43 ZM 522.50 534.54 C528.51,532.91 532.01,530.67 530.67,529.34 C530.28,528.94 526.70,529.44 522.73,530.45 C518.52,531.51 510.17,532.47 502.75,532.75 C493.21,533.12 490.00,533.56 490.00,534.53 C490.00,535.25 490.56,536.09 491.25,536.40 C493.70,537.52 516.57,536.16 522.50,534.54 ZM 520.67 528.81 C529.82,526.70 532.48,525.08 530.30,522.90 C529.67,522.27 528.29,522.32 526.41,523.04 C520.78,525.21 507.41,527.07 499.29,526.83 C490.65,526.57 489.38,526.95 490.35,529.46 C491.29,531.92 508.76,531.54 520.67,528.81 ZM 516.00 523.59 C525.45,521.90 531.00,519.62 531.00,517.43 C531.00,516.18 530.44,515.93 528.75,516.41 C527.51,516.76 524.03,517.76 521.00,518.64 C517.67,519.60 510.57,520.34 503.00,520.52 C492.83,520.76 490.44,521.10 490.19,522.32 C490.02,523.15 490.70,524.04 491.69,524.30 C495.44,525.27 508.78,524.88 516.00,523.59 ZM 522.34 516.16 C529.68,514.08 532.01,512.61 530.45,511.05 C529.85,510.45 526.74,510.84 522.00,512.12 C517.47,513.34 509.65,514.37 502.25,514.71 C495.51,515.03 490.00,515.65 490.00,516.10 C490.00,519.60 510.09,519.64 522.34,516.16 ZM 521.83 510.02 C528.95,508.07 532.34,506.01 530.87,504.54 C530.66,504.33 526.89,505.06 522.50,506.16 C517.66,507.37 509.76,508.33 502.50,508.59 C490.84,509.01 487.87,509.94 491.13,512.17 C493.56,513.83 512.87,512.48 521.83,510.02 ZM 521.50 504.48 C528.23,502.80 532.06,500.72 530.77,499.44 C530.44,499.10 526.72,499.38 522.52,500.06 C515.19,501.24 500.71,500.92 493.25,499.41 C490.07,498.76 490.00,498.83 490.00,502.29 C490.00,504.24 490.56,506.09 491.25,506.41 C493.70,507.52 514.61,506.19 521.50,504.48 ZM 532.50 496.02 C567.73,487.03 593.15,456.79 597.49,418.70 L 598.16 412.91 L 594.33 414.59 C589.40,416.76 574.94,421.64 570.75,422.55 C567.02,423.36 566.04,424.49 566.02,428.00 C565.99,432.12 559.14,450.00 556.63,452.52 C555.83,453.31 555.03,454.36 554.84,454.85 C554.65,455.34 553.55,456.03 552.39,456.39 C550.76,456.90 550.30,456.64 550.40,455.27 C550.54,453.52 552.73,448.97 553.91,448.00 C554.79,447.27 561.00,434.54 561.01,433.44 C561.01,432.92 561.70,431.18 562.54,429.57 C563.38,427.95 563.89,426.15 563.66,425.55 C563.37,424.79 556.62,425.01 540.87,426.28 C495.25,429.98 448.96,425.47 428.80,415.37 C426.22,414.08 423.91,413.35 423.68,413.76 C422.90,415.12 425.06,429.42 427.07,436.21 C432.10,453.16 444.09,470.69 457.75,481.06 C469.47,489.95 485.81,496.65 500.00,498.39 C507.27,499.28 524.70,498.01 532.50,496.02 ZM 547.34 423.50 C567.55,420.85 582.12,417.44 593.25,412.75 C597.40,411.01 598.00,410.38 598.00,407.80 L 598.00 404.84 L 594.75 406.81 C580.89,415.23 550.22,420.00 510.00,420.00 C469.94,420.00 447.12,416.36 424.25,406.33 C421.88,405.29 422.97,409.75 425.49,411.40 C432.11,415.74 453.10,421.10 472.75,423.48 C488.29,425.36 533.05,425.37 547.34,423.50 ZM 542.79 416.96 C555.48,415.60 574.20,412.31 580.50,410.34 C588.25,407.92 596.99,403.85 597.09,402.61 C598.23,388.99 588.24,365.17 575.42,350.93 C564.64,338.96 549.80,329.68 534.00,325.04 C523.66,322.00 505.40,321.21 494.26,323.33 C458.36,330.13 428.91,360.37 424.25,395.22 C423.75,398.92 423.61,402.35 423.92,402.83 C426.97,407.53 452.58,414.37 476.65,416.91 C488.22,418.13 531.58,418.16 542.79,416.96 ZM 369.00 789.13 C369.00,787.58 374.14,779.00 375.07,779.00 C375.86,779.00 381.00,788.07 381.00,789.47 C381.00,789.76 378.30,790.00 375.00,790.00 C371.70,790.00 369.00,789.61 369.00,789.13 ZM 377.96 787.25 C377.95,786.84 377.34,785.43 376.61,784.12 L 375.29 781.74 L 373.65 784.09 C371.35,787.38 371.56,788.00 375.00,788.00 C376.65,788.00 377.98,787.66 377.96,787.25 ZM 613.34 771.44 C612.95,770.43 608.51,755.18 603.48,737.55 C595.47,709.48 593.82,702.49 595.65,704.32 C596.95,705.62 615.33,772.01 614.59,772.74 C614.29,773.04 613.73,772.46 613.34,771.44 ZM 315.00 743.10 C315.00,742.38 318.32,736.10 322.38,729.15 C326.44,722.19 338.44,701.42 349.05,683.00 C359.65,664.58 374.30,639.15 381.60,626.50 C388.90,613.85 395.45,603.50 396.17,603.50 C396.89,603.50 400.40,608.55 403.99,614.73 C407.57,620.90 410.77,625.96 411.11,625.98 C411.70,626.00 433.10,584.47 441.38,567.25 C443.56,562.71 445.72,559.00 446.17,559.00 C446.62,559.00 448.45,561.24 450.24,563.98 C452.03,566.72 453.73,568.97 454.02,568.98 C454.30,568.99 458.54,554.49 463.44,536.75 C472.58,503.65 473.91,499.51 473.97,504.00 C474.04,508.29 462.33,597.01 461.61,597.73 C461.39,597.95 458.12,594.07 454.35,589.11 C450.58,584.15 447.21,580.08 446.86,580.05 C446.51,580.02 443.48,586.86 440.12,595.25 C421.64,641.41 414.16,659.45 413.37,659.70 C412.89,659.86 409.19,654.14 405.14,646.99 C401.09,639.83 397.44,633.77 397.02,633.51 C396.61,633.26 391.33,639.90 385.30,648.28 C379.26,656.65 364.23,677.22 351.90,694.00 C339.56,710.78 326.59,728.55 323.07,733.50 C315.36,744.35 315.00,744.78 315.00,743.10 ZM 347.91 696.11 C358.48,681.91 385.24,645.05 390.97,636.79 C393.91,632.55 396.64,629.28 397.04,629.53 C397.44,629.77 401.09,635.83 405.14,642.99 C409.19,650.14 412.81,655.99 413.18,656.00 C413.56,656.00 414.17,654.99 414.54,653.75 C415.88,649.32 445.19,577.48 446.01,576.62 C446.48,576.14 449.88,579.86 453.68,585.02 L 460.50 594.29 L 461.19 588.90 C461.57,585.93 462.60,578.10 463.46,571.50 C464.33,564.90 465.94,552.53 467.03,544.00 C468.13,535.47 469.30,527.15 469.63,525.50 C471.80,514.73 464.09,540.47 457.74,565.25 C456.65,569.51 455.38,573.00 454.92,573.00 C454.47,573.00 452.72,571.00 451.04,568.55 C449.35,566.10 447.57,563.85 447.07,563.55 C446.34,563.09 437.02,580.66 413.26,627.25 C412.48,628.76 411.55,630.00 411.18,630.00 C410.80,630.00 407.41,624.61 403.63,618.01 C399.85,611.42 396.39,606.26 395.94,606.54 C395.49,606.81 393.67,609.62 391.89,612.77 C388.10,619.50 378.16,636.70 361.98,664.50 C335.36,710.27 331.00,717.89 331.00,718.67 C331.00,719.12 333.36,716.16 336.25,712.10 C339.14,708.04 344.38,700.84 347.91,696.11 ZM 706.49 719.37 C697.69,708.57 686.05,694.29 680.60,687.62 C675.16,680.95 662.85,665.71 653.25,653.75 C643.65,641.79 635.46,632.00 635.06,632.00 C634.28,632.00 622.71,653.01 620.97,657.59 C620.37,659.16 619.57,659.94 619.08,659.41 C618.32,658.59 611.58,643.72 589.79,594.75 C585.94,586.09 582.48,579.00 582.12,579.00 C581.75,579.00 578.56,583.28 575.04,588.52 C571.52,593.75 568.32,597.69 567.93,597.27 C567.54,596.85 564.90,584.58 562.05,570.00 C559.21,555.42 555.11,534.78 552.94,524.12 C550.77,513.46 549.01,504.01 549.03,503.12 C549.06,501.66 549.15,501.66 549.98,503.07 C550.84,504.54 559.03,527.23 568.99,555.75 C571.35,562.49 573.59,568.00 573.99,568.00 C574.38,568.00 576.14,565.68 577.90,562.85 C579.78,559.82 581.47,558.07 581.99,558.60 C582.77,559.38 592.08,575.66 613.91,614.41 C616.99,619.87 619.91,624.29 620.40,624.24 C620.90,624.20 623.88,619.31 627.02,613.37 C630.17,607.44 633.18,602.44 633.71,602.26 C634.88,601.87 650.27,624.86 691.69,688.89 C719.21,731.43 723.91,739.00 722.74,739.00 C722.59,739.00 715.28,730.17 706.49,719.37 ZM 701.35 707.25 C698.24,702.44 694.10,696.03 692.16,693.00 C673.55,663.94 634.60,605.05 634.00,605.04 C633.72,605.04 630.78,610.32 627.45,616.77 C624.12,623.22 620.97,628.45 620.45,628.40 C619.52,628.30 605.58,604.37 590.34,576.73 C586.16,569.16 582.37,562.73 581.92,562.45 C581.47,562.17 579.46,564.50 577.46,567.63 C574.83,571.74 573.59,572.95 572.99,571.98 C572.53,571.24 568.44,559.93 563.88,546.85 C559.33,533.76 555.47,523.19 555.31,523.36 C555.14,523.53 556.33,530.38 557.95,538.58 C559.58,546.79 562.55,562.05 564.57,572.50 C566.58,582.95 568.53,591.84 568.91,592.25 C569.29,592.66 572.28,589.09 575.55,584.33 C578.83,579.57 581.86,575.63 582.27,575.58 C583.06,575.50 592.73,596.15 609.47,633.72 L 619.37 655.94 L 626.30 642.72 C630.11,635.45 633.58,629.11 634.02,628.64 C634.98,627.61 634.33,626.86 656.87,655.00 C666.78,667.38 679.47,683.12 685.06,690.00 C690.66,696.88 697.68,705.54 700.66,709.25 C703.64,712.96 706.29,716.00 706.55,716.00 C706.80,716.00 704.46,712.06 701.35,707.25 ZM 430.74 732.32 C430.49,731.87 432.92,719.58 436.15,705.00 C439.38,690.42 442.98,674.00 444.15,668.50 C446.18,659.01 448.00,654.28 448.00,658.51 C448.00,660.55 432.12,732.21 431.54,732.79 C431.36,732.98 430.99,732.77 430.74,732.32 ZM 620.48 702.60 C614.60,700.05 613.30,692.55 617.92,687.92 C625.59,680.26 637.59,689.16 632.60,698.81 C631.18,701.55 630.00,702.29 625.00,703.53 C624.17,703.74 622.14,703.32 620.48,702.60 ZM 630.97 697.75 C634.03,692.29 628.26,685.47 622.35,687.55 C618.18,689.01 616.31,692.92 617.92,696.81 C620.21,702.34 628.07,702.90 630.97,697.75 ZM 398.23 696.33 C397.53,696.05 396.26,694.48 395.42,692.84 C392.35,686.92 396.14,680.52 402.61,680.71 C410.73,680.94 413.64,690.69 407.09,695.72 C405.49,696.94 400.59,697.28 398.23,696.33 ZM 407.06 692.94 C409.81,690.19 409.23,686.24 405.70,683.62 C403.13,681.70 402.70,681.66 400.22,683.05 C396.41,685.19 395.21,689.14 397.36,692.42 C399.47,695.65 404.11,695.89 407.06,692.94 ZM 305.57 687.43 C303.71,685.57 303.50,680.90 305.20,679.20 C306.99,677.41 311.47,677.75 313.35,679.83 C315.54,682.26 315.43,684.57 313.00,687.00 C310.60,689.40 307.71,689.57 305.57,687.43 ZM 311.96 685.55 C314.04,683.04 312.81,680.50 309.50,680.50 C306.45,680.50 305.21,682.51 306.38,685.56 C307.10,687.42 310.41,687.42 311.96,685.55 ZM 743.00 686.47 C743.00,684.80 748.21,676.01 748.94,676.46 C749.87,677.04 755.00,685.47 755.00,686.43 C755.00,686.74 752.30,687.00 749.00,687.00 C745.70,687.00 743.00,686.76 743.00,686.47 ZM 750.82 682.50 C749.45,679.50 748.42,679.34 747.04,681.93 C745.53,684.75 745.69,685.00 748.98,685.00 C751.79,685.00 751.89,684.86 750.82,682.50 ZM 695.71 620.25 C684.04,609.39 665.95,592.58 655.50,582.91 C624.97,554.64 611.59,541.47 612.29,540.34 C612.65,539.76 616.78,538.45 621.47,537.42 C626.16,536.39 630.00,535.28 630.00,534.95 C630.00,534.36 621.06,524.65 595.73,497.70 C583.49,484.69 579.67,479.36 587.14,485.74 C588.99,487.31 594.33,491.52 599.00,495.09 C630.72,519.31 656.00,539.43 656.00,540.44 C656.00,541.09 651.98,542.66 647.00,543.95 C642.05,545.22 638.00,546.47 638.00,546.72 C638.00,546.97 644.66,554.67 652.79,563.84 C666.26,579.00 685.38,601.03 708.06,627.51 C723.59,645.64 721.91,644.65 695.71,620.25 ZM 696.32 616.64 C691.02,610.33 670.29,586.53 652.64,566.50 C642.95,555.50 635.02,546.23 635.01,545.89 C635.01,545.55 638.71,544.25 643.25,542.98 C647.79,541.72 651.85,540.39 652.27,540.03 C652.84,539.53 610.19,505.53 599.01,497.56 C597.48,496.48 605.49,505.30 623.85,524.92 C635.63,537.51 635.78,536.19 622.16,539.48 L 614.83 541.26 L 619.66 546.21 C622.32,548.94 633.25,559.34 643.95,569.33 C654.65,579.33 671.23,594.81 680.79,603.75 C690.35,612.69 698.39,620.00 698.66,620.00 C698.93,620.00 697.88,618.49 696.32,616.64 ZM 306.11 637.25 C311.40,630.44 351.05,584.42 372.92,559.70 C378.18,553.76 382.81,548.31 383.21,547.59 C383.75,546.63 381.56,545.66 374.79,543.87 C369.76,542.53 365.52,541.00 365.36,540.47 C365.21,539.94 373.28,533.11 383.29,525.29 C393.31,517.48 409.09,505.11 418.37,497.79 C427.65,490.48 436.18,483.83 437.34,483.00 C439.36,481.55 439.39,481.58 437.96,483.64 C437.14,484.81 426.47,496.61 414.24,509.86 C402.01,523.10 392.00,534.33 392.00,534.81 C392.00,535.28 395.57,536.49 399.93,537.48 C404.29,538.48 408.45,539.70 409.18,540.18 C410.68,541.20 413.14,538.79 361.39,587.00 C342.20,604.87 321.97,623.88 316.44,629.25 C307.30,638.12 302.64,641.72 306.11,637.25 ZM 369.95 576.56 L 407.28 541.63 L 403.77 540.41 C401.85,539.74 397.74,538.67 394.65,538.03 C391.56,537.39 388.84,536.54 388.59,536.15 C388.35,535.76 395.99,526.95 405.58,516.57 C415.16,506.20 423.00,497.53 423.00,497.30 C423.00,496.77 391.50,521.05 368.18,539.56 C367.86,539.81 374.14,541.71 382.75,543.96 C385.09,544.58 386.99,545.40 386.98,545.79 C386.97,546.18 380.64,553.70 372.90,562.50 C341.60,598.12 322.85,620.25 327.60,616.00 C330.36,613.53 349.42,595.78 369.95,576.56 ZM 458.23 636.33 C455.96,635.42 453.83,630.04 454.52,626.93 C455.75,621.30 463.36,619.04 468.12,622.89 C471.11,625.32 471.36,631.84 468.57,634.92 C466.76,636.92 461.49,637.64 458.23,636.33 ZM 467.17 633.35 C471.04,629.84 467.91,622.75 462.50,622.75 C459.42,622.75 456.00,625.98 456.00,628.89 C456.00,629.80 456.70,631.56 457.56,632.78 C459.45,635.47 464.49,635.77 467.17,633.35 ZM 571.57 627.43 C567.89,623.74 570.50,618.00 575.86,618.00 C580.12,618.00 582.84,624.76 579.80,627.80 C578.10,629.50 573.43,629.29 571.57,627.43 ZM 578.50 623.50 C578.50,621.08 578.03,620.43 576.06,620.16 C572.86,619.70 570.66,622.51 572.11,625.20 C572.81,626.51 573.98,627.02 575.82,626.81 C578.06,626.55 578.50,626.01 578.50,623.50 ZM 271.32 616.99 C268.59,615.89 267.00,613.02 267.00,609.18 C267.00,605.14 269.79,602.05 274.08,601.37 C278.51,600.66 282.69,603.87 283.62,608.71 C284.13,611.39 283.74,612.42 281.19,614.96 C278.11,618.05 275.34,618.62 271.32,616.99 ZM 279.96 613.81 C282.55,611.04 282.54,608.95 279.93,605.63 C275.88,600.49 269.00,603.34 269.00,610.17 C269.00,615.47 276.19,617.86 279.96,613.81 ZM 654.33 604.18 C642.89,589.58 640.06,585.52 641.75,586.09 C643.06,586.54 665.97,615.05 665.99,616.25 C666.03,618.47 663.42,615.78 654.33,604.18 ZM 733.87 607.22 C727.17,606.38 724.07,596.75 728.85,591.66 C734.93,585.19 745.00,589.66 745.00,598.82 C745.00,604.21 740.00,607.99 733.87,607.22 ZM 740.37 603.93 C744.62,600.58 743.89,594.03 738.97,591.48 C734.00,588.91 728.00,592.82 728.00,598.62 C728.00,600.81 733.48,606.00 735.79,606.00 C736.86,606.00 738.92,605.07 740.37,603.93 ZM 395.34 582.99 C390.96,581.25 391.21,574.63 395.72,572.92 C400.17,571.23 403.75,574.69 403.03,580.00 C402.64,582.91 398.84,584.39 395.34,582.99 ZM 400.43 580.43 C403.26,577.59 399.43,573.28 395.75,575.17 C392.63,576.78 394.42,581.80 398.18,581.97 C398.55,581.99 399.56,581.29 400.43,580.43 ZM 807.50 570.00 C808.89,567.25 810.43,565.00 810.92,565.00 C811.75,565.00 817.00,573.15 817.00,574.43 C817.00,574.74 814.29,575.00 810.98,575.00 L 804.97 575.00 L 807.50 570.00 ZM 814.00 572.93 C814.00,571.35 812.05,568.00 811.13,568.00 C810.42,568.00 808.00,572.30 808.00,573.55 C808.00,573.80 809.35,574.00 811.00,574.00 C812.65,574.00 814.00,573.52 814.00,572.93 ZM 608.47 570.97 C606.37,568.65 607.23,564.50 610.20,562.64 C612.76,561.03 617.28,563.01 618.41,566.24 C619.62,569.66 616.95,573.00 613.00,573.00 C611.52,573.00 609.48,572.09 608.47,570.97 ZM 616.52 568.95 C617.86,564.70 612.08,562.30 609.69,566.11 C608.08,568.69 609.59,571.00 612.90,571.00 C615.01,571.00 616.05,570.41 616.52,568.95 ZM 275.55 553.10 C276.82,551.89 329.64,516.90 348.22,504.96 C356.32,499.76 362.96,495.22 362.97,494.87 C362.99,494.53 360.51,492.53 357.48,490.44 C354.44,488.35 352.11,486.16 352.30,485.57 C352.61,484.62 363.81,480.40 408.34,464.45 C415.41,461.92 421.41,460.08 421.69,460.36 C421.97,460.64 419.79,462.06 416.85,463.53 C405.05,469.41 372.02,487.54 372.01,488.15 C372.01,488.51 374.51,490.47 377.59,492.51 C380.66,494.55 382.80,496.59 382.34,497.03 C380.90,498.41 320.57,531.17 297.92,542.86 C277.81,553.24 273.17,555.36 275.55,553.10 ZM 307.89 535.66 C316.58,531.20 365.93,504.37 375.83,498.72 L 380.17 496.25 L 373.99 492.50 C368.93,489.42 368.06,488.52 369.16,487.48 C369.90,486.79 376.12,483.18 383.00,479.47 C395.56,472.69 400.03,470.00 398.76,470.00 C397.48,470.00 356.51,485.15 355.71,485.91 C355.28,486.33 357.42,488.32 360.46,490.35 C363.51,492.37 366.00,494.38 366.00,494.81 C366.00,495.25 361.84,498.27 356.75,501.53 C341.71,511.18 296.41,541.22 297.50,540.83 C298.05,540.64 302.73,538.31 307.89,535.66 ZM 200.00 542.97 C200.00,541.69 204.86,532.00 205.50,532.00 C206.07,532.00 211.98,542.23 211.99,543.25 C212.00,543.66 209.30,544.00 206.00,544.00 C202.54,544.00 200.00,543.56 200.00,542.97 ZM 209.00 541.55 C209.00,540.29 206.57,536.00 205.87,536.00 C205.42,536.00 204.35,537.35 203.50,539.00 L 201.95 542.00 L 205.47 542.00 C207.41,542.00 209.00,541.80 209.00,541.55 ZM 694.50 519.68 C656.79,498.14 632.87,484.17 631.57,482.93 C631.05,482.43 630.86,481.81 631.14,481.53 C631.42,481.25 637.46,484.43 644.57,488.60 C656.92,495.84 700.76,521.05 719.25,531.54 C726.98,535.93 729.62,538.05 727.25,537.98 C726.84,537.96 712.10,529.73 694.50,519.68 ZM 442.31 519.01 C434.08,515.62 436.71,503.60 445.68,503.60 C450.07,503.60 453.00,506.76 453.00,511.50 C453.00,517.30 447.51,521.16 442.31,519.01 ZM 449.01 516.19 C450.39,515.07 451.25,513.27 451.25,511.50 C451.25,508.61 448.07,505.00 445.52,505.00 C443.14,505.00 439.00,509.12 439.00,511.50 C439.00,513.88 443.14,518.00 445.52,518.00 C446.21,518.00 447.78,517.19 449.01,516.19 ZM 255.49 516.75 C251.65,513.44 251.01,507.25 254.14,503.65 C257.46,499.83 262.65,499.15 266.32,502.04 C270.18,505.07 271.33,508.46 269.95,512.66 C267.96,518.70 260.28,520.87 255.49,516.75 ZM 266.00 515.00 C269.25,511.75 269.01,507.50 265.39,504.25 C262.16,501.34 259.51,501.40 256.45,504.45 C253.45,507.45 253.32,510.87 256.07,514.37 C258.61,517.59 263.12,517.88 266.00,515.00 ZM 575.04 516.81 C570.42,511.86 574.25,503.00 581.00,503.00 C587.94,503.00 591.69,512.12 586.69,516.83 C583.56,519.77 577.79,519.76 575.04,516.81 ZM 583.32 516.85 C586.14,515.37 586.97,514.06 586.98,511.08 C587.02,505.83 580.76,503.10 576.83,506.65 C574.98,508.33 574.41,512.58 575.77,514.59 C576.40,515.53 579.92,517.88 580.82,517.97 C580.99,517.99 582.11,517.48 583.32,516.85 ZM 189.55 496.14 C190.45,495.32 215.87,486.93 287.00,463.97 C304.33,458.38 318.68,453.63 318.90,453.41 C319.13,453.20 316.33,449.12 312.70,444.35 C309.06,439.57 306.27,435.37 306.50,434.99 C306.73,434.62 314.03,434.01 322.71,433.64 C331.40,433.27 351.55,432.30 367.50,431.50 C397.94,429.96 411.68,429.65 410.81,430.52 C410.53,430.80 396.39,433.75 379.40,437.06 C362.40,440.37 344.58,443.85 339.79,444.79 L 331.09 446.50 L 337.17 454.32 C340.53,458.63 342.86,462.51 342.38,462.95 C341.43,463.83 192.10,497.00 189.11,497.00 C188.83,497.00 189.03,496.61 189.55,496.14 ZM 236.82 484.91 C289.17,473.43 339.22,462.11 339.71,461.63 C340.00,461.33 337.48,457.62 334.11,453.39 C330.73,449.16 328.16,445.50 328.41,445.26 C328.65,445.02 341.71,442.40 357.44,439.43 C390.83,433.15 396.02,431.85 385.00,432.54 C380.88,432.80 362.42,433.73 344.00,434.61 C325.58,435.48 310.33,436.36 310.13,436.55 C309.93,436.75 311.95,439.91 314.63,443.57 C317.31,447.23 320.13,451.09 320.89,452.14 C321.65,453.19 322.03,454.30 321.73,454.60 C321.43,454.91 313.60,457.56 304.34,460.49 C260.40,474.43 217.46,488.27 217.08,488.62 C216.29,489.34 218.21,488.98 236.82,484.91 ZM 825.50 492.39 C815.70,490.41 794.14,486.38 746.00,477.53 C723.17,473.34 701.59,469.27 698.03,468.50 C694.48,467.73 691.36,467.30 691.11,467.56 C690.70,467.96 692.31,480.18 693.71,487.25 C694.10,489.25 693.85,490.00 692.77,490.00 C691.96,490.00 680.99,485.35 668.40,479.66 C607.00,451.93 592.04,444.49 605.75,448.49 C621.05,452.96 674.31,467.05 674.92,466.80 C675.32,466.64 675.09,463.35 674.40,459.50 C672.70,449.93 672.66,445.66 674.28,446.28 C674.99,446.55 686.35,449.79 699.53,453.48 C712.72,457.17 742.40,465.73 765.50,472.50 C788.60,479.28 813.24,486.50 820.25,488.55 C827.26,490.60 833.00,492.66 833.00,493.14 C833.00,493.61 832.89,493.96 832.75,493.91 C832.61,493.85 829.35,493.17 825.50,492.39 ZM 690.95 484.25 C690.92,482.74 690.30,477.90 689.57,473.50 C688.84,469.10 688.40,465.32 688.59,465.11 C688.79,464.89 692.67,465.44 697.23,466.32 C701.78,467.20 720.35,470.66 738.50,474.00 C756.65,477.35 778.40,481.45 786.84,483.12 C795.28,484.79 802.34,485.99 802.55,485.79 C802.92,485.42 789.29,481.36 739.50,467.00 C691.15,453.07 675.83,448.84 675.37,449.30 C675.12,449.55 675.66,454.11 676.57,459.43 C677.47,464.76 677.98,469.35 677.70,469.63 C677.42,469.92 664.66,466.73 649.34,462.54 C634.03,458.36 620.60,454.71 619.50,454.45 C616.45,453.71 631.77,460.96 660.00,473.60 C674.03,479.88 686.17,485.43 687.00,485.95 C689.71,487.64 691.00,487.08 690.95,484.25 ZM 415.04 480.81 C413.92,479.61 413.00,477.81 413.00,476.81 C413.00,474.40 416.51,471.00 419.00,471.00 C420.10,471.00 421.90,471.90 423.00,473.00 C424.10,474.10 425.00,475.90 425.00,477.00 C425.00,479.56 421.58,483.00 419.04,483.00 C417.96,483.00 416.16,482.02 415.04,480.81 ZM 421.80 479.80 C423.60,478.00 423.25,475.20 421.07,474.04 C420.00,473.47 418.91,473.00 418.64,473.00 C417.81,473.00 415.00,476.09 415.00,477.00 C415.00,478.28 417.97,481.00 419.37,481.00 C420.05,481.00 421.14,480.46 421.80,479.80 ZM 599.23 479.33 C597.00,478.43 594.83,473.04 595.49,470.03 C596.70,464.54 602.58,462.10 607.84,464.91 C612.47,467.39 612.99,475.50 608.70,478.50 C606.62,479.95 601.82,480.38 599.23,479.33 ZM 608.00 476.00 C611.94,472.06 609.25,466.00 603.57,466.00 C599.89,466.00 598.49,467.19 597.49,471.17 C596.11,476.69 603.78,480.22 608.00,476.00 ZM 172.00 456.39 C172.00,455.21 177.32,446.00 178.00,446.00 C178.68,446.00 184.00,455.21 184.00,456.39 C184.00,456.72 181.30,457.00 178.00,457.00 C174.70,457.00 172.00,456.72 172.00,456.39 ZM 181.00 454.19 C181.00,453.75 180.32,452.51 179.50,451.44 C178.02,449.52 177.98,449.52 176.50,451.44 C174.32,454.26 174.63,455.00 178.00,455.00 C179.65,455.00 181.00,454.64 181.00,454.19 ZM 399.44 451.55 C396.12,446.49 401.42,441.08 406.46,444.38 C409.22,446.19 409.94,450.66 407.80,452.80 C405.70,454.90 401.19,454.23 399.44,451.55 ZM 405.42 452.39 C407.46,451.61 407.46,447.63 405.42,445.93 C402.10,443.18 398.44,448.30 401.52,451.38 C403.37,453.23 403.30,453.21 405.42,452.39 ZM 621.00 435.73 C619.62,435.04 617.69,432.83 616.70,430.82 C615.08,427.51 615.05,426.82 616.37,423.66 C617.17,421.73 618.74,419.67 619.85,419.08 C626.05,415.76 634.00,420.49 634.00,427.50 C634.00,430.21 633.24,431.91 631.08,434.08 C627.93,437.22 624.98,437.70 621.00,435.73 ZM 629.55 432.55 C632.60,429.49 632.71,425.38 629.83,422.31 C625.81,418.04 618.86,420.23 617.44,426.22 C616.92,428.41 617.40,429.55 619.82,431.97 C623.49,435.64 626.29,435.81 629.55,432.55 ZM 752.20 433.80 C750.50,432.10 750.71,427.43 752.57,425.57 C754.71,423.43 757.60,423.60 760.00,426.00 C762.41,428.41 762.50,429.84 760.44,432.78 C758.73,435.23 754.19,435.79 752.20,433.80 ZM 760.00 430.16 C760.00,426.11 754.87,424.50 753.01,427.98 C751.48,430.84 755.16,434.52 758.02,432.99 C759.11,432.41 760.00,431.14 760.00,430.16 ZM 257.95 429.91 C255.14,424.65 260.59,419.19 265.46,422.38 C268.22,424.19 268.94,428.66 266.80,430.80 C264.76,432.84 259.22,432.28 257.95,429.91 ZM 266.00 426.43 C266.00,423.58 263.51,422.19 261.11,423.70 C258.79,425.16 258.50,428.16 260.53,429.65 C262.96,431.42 266.00,429.64 266.00,426.43 ZM 373.08 412.41 C366.66,407.01 370.46,396.55 378.84,396.55 C384.65,396.55 388.00,399.90 388.00,405.72 C388.00,414.29 379.72,418.00 373.08,412.41 ZM 383.66 411.53 C387.89,408.56 387.12,401.29 382.34,399.11 C378.92,397.55 377.64,397.71 374.63,400.07 C369.45,404.15 372.29,413.00 378.78,413.00 C380.31,413.00 382.50,412.34 383.66,411.53 ZM 653.77 408.44 C653.48,408.15 654.04,405.34 655.02,402.21 C656.00,399.07 656.70,396.40 656.58,396.27 C656.34,396.00 645.39,397.96 624.13,402.10 C615.67,403.74 608.52,404.85 608.23,404.57 C607.95,404.28 608.34,403.82 609.11,403.54 C609.87,403.26 614.55,401.51 619.50,399.65 C671.87,379.98 670.61,380.38 669.63,383.75 C668.07,389.12 666.91,394.24 667.19,394.52 C667.36,394.70 675.72,394.00 685.75,392.97 C729.12,388.53 769.20,384.89 771.26,385.21 C773.34,385.53 728.26,394.75 679.50,403.98 C667.95,406.17 657.55,408.18 656.40,408.46 C655.24,408.74 654.06,408.73 653.77,408.44 ZM 703.50 397.38 C738.04,390.70 745.90,389.00 742.36,389.00 C741.49,389.00 729.65,390.26 680.67,395.56 C672.51,396.45 665.58,396.91 665.26,396.59 C664.94,396.27 665.24,393.50 665.93,390.43 C666.62,387.36 667.03,384.70 666.84,384.52 C666.65,384.35 657.62,387.42 646.76,391.35 C635.90,395.28 627.49,398.66 628.08,398.86 C628.66,399.05 635.65,397.98 643.60,396.46 C651.55,394.95 658.34,394.00 658.68,394.35 C659.24,394.91 658.01,400.20 656.26,404.76 C655.51,406.73 654.22,406.93 703.50,397.38 ZM 307.19 387.49 C273.30,380.69 269.00,379.66 270.08,378.59 C270.67,378.01 345.07,392.72 347.50,393.90 C352.02,396.08 342.34,394.54 307.19,387.49 ZM 617.57 389.43 C615.71,387.57 615.50,382.90 617.20,381.20 C617.86,380.54 619.79,380.00 621.50,380.00 C625.33,380.00 627.00,381.57 627.00,385.14 C627.00,389.90 620.84,392.70 617.57,389.43 ZM 623.80 387.80 C625.64,385.96 625.23,383.19 622.94,381.97 C620.33,380.57 618.00,382.25 618.00,385.54 C618.00,388.72 621.51,390.09 623.80,387.80 ZM 828.73 386.12 C827.78,383.43 827.00,380.90 827.00,380.49 C827.00,379.73 835.82,380.61 838.49,381.64 C839.63,382.07 839.11,383.20 836.23,386.57 C834.18,388.97 832.04,390.95 831.48,390.97 C830.93,390.99 829.69,388.80 828.73,386.12 ZM 833.53 382.68 C830.08,381.53 829.38,382.35 830.93,385.74 L 832.18 388.49 L 834.18 386.03 L 836.18 383.56 L 833.53 382.68 ZM 371.50 365.47 C352.25,353.74 335.99,344.12 335.37,344.07 C334.65,344.03 333.98,347.39 333.54,353.32 C333.15,358.45 332.52,363.16 332.12,363.80 C331.64,364.59 320.39,358.88 297.45,346.18 C246.75,318.13 210.71,298.26 199.50,292.18 C188.40,286.15 188.47,286.20 189.16,285.51 C189.43,285.24 197.04,288.19 206.08,292.07 C215.11,295.95 234.20,304.03 248.50,310.02 C262.80,316.01 284.60,325.19 296.94,330.43 C309.29,335.66 319.58,339.76 319.81,339.53 C320.04,339.30 320.83,334.25 321.58,328.30 C322.32,322.36 322.95,317.39 322.97,317.25 C323.18,315.63 335.41,325.13 367.60,351.93 C375.90,358.84 388.61,369.38 395.85,375.35 C403.08,381.32 409.00,386.38 409.00,386.60 C409.00,388.02 402.73,384.49 371.50,365.47 ZM 391.47 374.22 C389.71,372.72 350.47,340.43 332.04,325.32 C328.49,322.40 325.26,320.35 324.87,320.76 C324.48,321.17 323.63,326.00 322.98,331.50 C322.34,337.00 321.62,341.80 321.40,342.16 C321.17,342.53 314.13,339.91 305.74,336.34 C292.61,330.74 225.64,302.31 216.25,298.35 C210.73,296.01 212.66,297.80 219.25,301.12 C225.85,304.44 308.97,350.05 322.34,357.68 C326.65,360.14 330.34,361.99 330.54,361.80 C330.73,361.60 331.21,357.33 331.58,352.31 C331.96,347.28 332.63,342.60 333.06,341.90 C333.64,340.97 341.79,345.40 363.17,358.27 C379.30,367.98 392.73,375.92 393.00,375.92 C393.27,375.93 392.59,375.16 391.47,374.22 ZM 612.16 372.67 C632.62,356.10 687.70,314.00 688.92,314.00 C689.41,314.00 690.13,318.22 690.52,323.37 C690.90,328.52 691.55,333.27 691.95,333.92 C692.47,334.76 698.46,332.66 712.59,326.67 C772.48,301.27 818.04,282.71 818.75,283.41 C818.98,283.65 818.12,284.39 816.84,285.06 C815.55,285.73 795.15,296.73 771.50,309.50 C747.85,322.28 724.22,335.01 719.00,337.81 C713.78,340.60 702.99,346.48 695.03,350.87 C687.07,355.26 680.21,358.63 679.78,358.37 C679.35,358.10 679.00,353.89 679.00,349.00 C679.00,343.99 678.55,339.84 677.97,339.48 C677.40,339.13 673.47,340.85 669.22,343.31 C664.97,345.76 652.72,352.61 642.00,358.52 C631.28,364.43 619.42,371.00 615.66,373.13 C606.73,378.19 605.55,378.03 612.16,372.67 ZM 630.19 363.10 C652.75,350.14 678.17,336.00 678.91,336.00 C679.75,336.00 680.57,341.69 681.26,352.23 L 681.50 355.97 L 707.00 342.19 C721.03,334.62 746.11,321.07 762.75,312.09 C779.39,303.11 793.00,295.62 793.00,295.44 C793.00,295.26 789.96,296.38 786.25,297.92 C770.77,304.36 722.32,324.70 707.12,331.13 C698.11,334.95 690.58,337.91 690.38,337.71 C690.18,337.52 689.56,332.92 689.00,327.50 C688.44,322.08 687.82,317.48 687.62,317.29 C687.10,316.76 626.00,363.66 626.00,364.59 C626.00,365.33 626.84,365.03 630.19,363.10 ZM 189.00 366.50 C189.00,365.37 194.56,356.03 195.23,356.01 C195.90,356.00 201.00,365.24 201.00,366.47 C201.00,366.76 198.30,367.00 195.00,367.00 C191.70,367.00 189.00,366.78 189.00,366.50 ZM 197.96 364.25 C197.95,363.84 197.34,362.43 196.61,361.12 L 195.29 358.74 L 193.65 361.09 C191.35,364.38 191.56,365.00 195.00,365.00 C196.65,365.00 197.98,364.66 197.96,364.25 ZM 401.59 357.92 C400.17,356.23 399.00,354.18 399.00,353.37 C399.00,350.35 402.04,346.18 405.01,345.15 C413.21,342.29 419.67,352.42 413.55,358.55 C409.93,362.16 404.93,361.90 401.59,357.92 ZM 412.17 357.35 C414.88,354.89 414.50,350.54 411.37,348.07 C408.15,345.54 406.85,345.49 404.05,347.76 C401.23,350.04 400.93,355.75 403.53,357.65 C406.05,359.49 409.96,359.35 412.17,357.35 ZM 732.33 358.38 C730.80,356.04 730.77,355.50 732.10,353.13 C733.25,351.09 734.34,350.50 737.00,350.50 C739.66,350.50 740.75,351.09 741.90,353.13 C743.23,355.50 743.20,356.04 741.67,358.38 C740.46,360.23 739.08,361.00 737.00,361.00 C734.92,361.00 733.54,360.23 732.33,358.38 ZM 740.07 357.42 C741.82,355.30 740.07,352.50 737.00,352.50 C733.93,352.50 732.18,355.30 733.93,357.42 C734.65,358.29 736.03,359.00 737.00,359.00 C737.97,359.00 739.35,358.29 740.07,357.42 ZM 607.00 341.00 C604.18,338.18 604.28,331.75 607.19,329.04 C609.62,326.77 614.62,326.39 617.09,328.28 C621.26,331.49 621.80,337.33 618.27,341.25 C616.05,343.71 609.57,343.57 607.00,341.00 ZM 617.17 339.35 C620.87,336.00 618.16,328.99 613.19,329.02 C609.92,329.03 608.66,329.81 607.11,332.75 C605.88,335.09 606.95,338.60 609.40,340.23 C611.32,341.51 615.28,341.06 617.17,339.35 ZM 410.50 330.16 C403.90,325.33 390.85,316.05 381.50,309.52 C355.33,291.26 333.00,274.87 333.00,273.93 C333.00,273.46 338.17,271.42 344.50,269.39 C350.83,267.37 355.98,265.21 355.96,264.60 C355.94,264.00 336.14,238.79 311.96,208.59 C287.78,178.39 268.26,153.41 268.58,153.09 C268.90,152.76 283.19,166.76 300.33,184.20 C317.48,201.63 343.54,228.02 358.25,242.84 C372.96,257.66 385.00,270.25 385.00,270.81 C385.00,271.37 380.61,273.28 375.25,275.05 C369.89,276.82 365.17,278.45 364.77,278.68 C364.37,278.91 372.92,287.73 383.77,298.28 C421.90,335.35 425.49,338.98 424.00,338.95 C423.17,338.93 417.10,334.98 410.50,330.16 ZM 404.00 320.78 C387.26,304.74 361.00,278.67 361.00,278.11 C361.00,277.77 365.73,276.03 371.50,274.23 C377.28,272.44 381.98,270.64 381.96,270.23 C381.93,269.83 360.51,247.90 334.35,221.50 C308.19,195.10 288.29,175.52 290.12,178.00 C291.95,180.48 303.36,194.81 315.47,209.86 C349.33,251.92 359.85,265.43 359.36,266.23 C359.11,266.63 353.66,268.60 347.25,270.60 C336.55,273.94 335.76,274.35 337.55,275.66 C341.16,278.31 382.37,307.85 396.50,317.91 C404.20,323.39 410.73,327.90 411.00,327.92 C411.27,327.95 408.12,324.73 404.00,320.78 ZM 577.01 326.31 C577.02,325.47 578.24,323.84 609.28,283.01 C621.34,267.15 627.48,258.30 626.70,257.88 C626.04,257.53 621.59,256.67 616.81,255.97 C605.75,254.35 605.13,253.98 607.51,250.34 C610.84,245.22 621.24,231.20 636.90,210.68 C645.38,199.58 663.33,175.88 676.80,158.00 C690.28,140.12 701.76,125.32 702.33,125.11 C702.89,124.89 702.08,126.92 700.53,129.61 C695.37,138.54 647.85,218.29 640.24,230.79 C636.12,237.56 632.92,243.23 633.13,243.41 C633.33,243.58 638.83,244.65 645.34,245.79 C651.86,246.93 657.44,248.11 657.75,248.42 C658.38,249.05 652.45,255.04 624.00,282.55 C613.28,292.92 598.88,306.86 592.00,313.53 C579.43,325.72 576.99,327.80 577.01,326.31 ZM 619.98 283.37 C631.82,271.75 644.40,259.49 647.94,256.14 C651.48,252.79 654.18,249.85 653.94,249.62 C653.70,249.38 648.55,248.38 642.50,247.40 C636.45,246.42 631.12,245.30 630.66,244.92 C629.93,244.31 658.38,195.75 686.84,149.00 C690.25,143.41 685.04,150.08 660.31,183.00 C646.05,201.98 630.81,222.23 626.43,228.00 C615.91,241.87 608.72,252.06 609.15,252.47 C609.48,252.78 628.91,256.00 630.48,256.00 C632.04,256.00 629.55,259.64 613.30,281.03 C604.06,293.19 594.96,305.25 593.07,307.82 L 589.64 312.50 L 594.05 308.50 C596.48,306.30 608.15,294.99 619.98,283.37 ZM 423.32 318.99 C418.50,317.05 417.45,309.46 421.45,305.45 C426.61,300.30 435.40,304.11 435.40,311.50 C435.40,317.82 429.49,321.48 423.32,318.99 ZM 431.55 315.55 C434.55,312.54 434.61,311.05 431.88,307.58 C427.60,302.13 419.65,306.50 421.38,313.36 C422.01,315.88 424.68,317.78 427.80,317.94 C428.51,317.97 430.20,316.90 431.55,315.55 ZM 445.40 303.24 C427.85,280.79 409.00,255.41 409.00,254.23 C409.00,253.51 411.54,252.98 415.85,252.79 L 422.69 252.50 L 412.10 231.00 C406.27,219.17 395.91,198.02 389.08,184.00 C382.26,169.97 375.81,156.77 374.76,154.65 C371.76,148.59 374.43,151.31 379.29,159.27 C381.72,163.25 394.70,184.27 408.14,206.00 C435.79,250.71 440.74,258.93 441.19,260.86 C441.42,261.89 439.97,262.26 435.33,262.36 C431.94,262.44 428.86,262.81 428.48,263.18 C428.11,263.56 432.62,272.56 438.51,283.18 C455.44,313.69 456.21,315.13 455.77,315.56 C455.54,315.79 450.88,310.24 445.40,303.24 ZM 440.44 290.34 C437.84,285.58 433.10,277.18 429.90,271.67 C426.71,266.17 424.32,261.29 424.60,260.83 C424.89,260.37 428.24,260.00 432.05,260.00 L 438.99 260.00 L 426.67 239.75 C405.33,204.67 390.62,181.05 390.29,181.37 C390.12,181.54 398.06,198.07 407.93,218.09 L 425.87 254.50 L 418.93 254.79 C415.12,254.96 412.00,255.35 412.00,255.66 C412.00,256.42 444.14,299.00 444.72,299.00 C444.96,299.00 443.04,295.10 440.44,290.34 ZM 624.04 310.19 C624.02,309.46 634.24,297.99 646.75,284.70 C659.26,271.41 671.60,258.28 674.18,255.52 C676.75,252.77 679.17,250.84 679.56,251.22 C679.94,251.61 671.54,261.26 660.88,272.66 C631.90,303.67 624.08,311.64 624.04,310.19 ZM 511.02 303.25 C511.03,300.09 511.48,285.84 512.02,271.58 C512.55,257.32 512.88,245.56 512.75,245.44 C512.61,245.32 509.83,246.52 506.57,248.11 C498.64,251.97 497.85,251.89 498.50,247.25 C498.99,243.79 503.48,189.44 507.67,136.25 C508.65,123.71 509.77,114.62 510.22,115.42 C510.65,116.21 511.31,142.98 511.67,174.92 C512.03,206.87 512.71,233.00 513.18,233.00 C513.65,233.00 516.75,231.90 520.07,230.55 C524.44,228.77 526.23,228.43 526.57,229.31 C526.82,229.98 524.59,242.90 521.61,258.01 C518.63,273.13 515.19,290.79 513.98,297.25 C512.77,303.71 511.61,309.00 511.39,309.00 C511.18,309.00 511.01,306.41 511.02,303.25 ZM 519.51 258.50 C522.38,243.65 524.61,231.36 524.47,231.19 C524.33,231.02 521.42,232.06 518.00,233.50 C514.58,234.94 511.49,235.83 511.14,235.48 C510.79,235.12 510.27,214.74 510.00,190.17 C509.73,165.60 509.18,147.52 508.78,150.00 C508.39,152.48 506.90,169.57 505.48,188.00 C504.06,206.43 502.47,225.94 501.95,231.36 C500.65,244.87 500.71,248.33 502.25,247.70 C502.94,247.42 506.15,246.00 509.38,244.55 L 515.26 241.91 L 514.61 258.21 C514.25,267.17 513.76,277.88 513.52,282.00 C512.95,291.89 513.37,290.24 519.51,258.50 ZM 550.75 304.92 C548.00,303.32 545.79,298.21 546.49,295.05 C548.58,285.53 562.80,285.10 564.57,294.51 C565.33,298.59 563.60,303.61 560.93,305.04 C558.60,306.29 552.98,306.22 550.75,304.92 ZM 561.00 302.00 C564.96,298.04 562.59,290.81 556.89,289.47 C550.77,288.02 546.10,297.14 550.49,301.99 C552.89,304.64 558.35,304.65 561.00,302.00 ZM 664.45 301.55 C661.10,298.20 661.00,291.26 664.25,288.31 C667.39,285.47 670.76,284.87 674.58,286.47 C678.48,288.10 680.00,290.62 680.00,295.48 C680.00,303.26 670.05,307.14 664.45,301.55 ZM 676.17 300.35 C678.54,298.20 678.53,292.88 676.16,289.95 C673.94,287.21 668.73,287.03 665.90,289.59 C663.13,292.09 663.32,298.41 666.22,300.44 C669.12,302.48 673.87,302.43 676.17,300.35 ZM 475.59 297.92 C470.73,292.15 473.25,284.23 480.52,282.41 C484.31,281.46 489.40,284.13 490.95,287.89 C494.98,297.60 482.29,305.89 475.59,297.92 ZM 487.23 297.25 C489.59,294.55 490.23,291.31 488.89,288.79 C486.18,283.70 481.95,282.68 477.63,286.07 C474.33,288.67 474.02,294.02 477.00,297.00 C479.51,299.51 485.12,299.65 487.23,297.25 ZM 247.00 280.47 C247.00,279.20 252.11,270.00 252.81,270.00 C253.23,270.00 254.80,272.48 256.28,275.50 L 258.98 281.00 L 252.99 281.00 C249.70,281.00 247.00,280.76 247.00,280.47 ZM 254.82 276.50 C253.45,273.50 252.42,273.34 251.04,275.93 C249.53,278.75 249.69,279.00 252.98,279.00 C255.79,279.00 255.89,278.86 254.82,276.50 ZM 560.04 272.50 C560.04,271.40 562.06,263.52 564.55,255.00 C572.80,226.68 581.78,195.56 582.97,191.12 C583.63,188.65 584.52,187.13 585.01,187.62 C585.84,188.47 582.42,201.10 568.36,249.00 C561.66,271.84 560.08,276.31 560.04,272.50 ZM 469.51 257.27 C468.06,252.45 466.05,246.02 465.04,243.00 C461.45,232.25 460.12,227.00 461.00,227.00 C461.50,227.00 464.42,234.99 467.50,244.75 C470.59,254.51 473.29,263.05 473.51,263.72 C473.73,264.39 473.51,265.18 473.02,265.49 C472.53,265.79 470.95,262.09 469.51,257.27 ZM 307.57 258.43 C305.71,256.57 305.50,251.90 307.20,250.20 C308.99,248.41 313.47,248.75 315.35,250.83 C318.67,254.50 316.37,260.00 311.50,260.00 C310.20,260.00 308.44,259.29 307.57,258.43 ZM 314.52 255.95 C315.35,253.33 313.28,250.82 310.59,251.20 C308.14,251.55 307.11,255.82 309.16,257.12 C311.48,258.59 313.84,258.08 314.52,255.95 ZM 764.00 257.50 C760.99,253.88 763.59,248.00 768.19,248.00 C770.54,248.00 774.00,251.48 774.00,253.85 C774.00,258.11 766.71,260.77 764.00,257.50 ZM 772.00 254.16 C772.00,249.97 766.85,248.53 764.90,252.18 C763.91,254.04 764.07,254.64 765.96,256.17 C768.55,258.27 772.00,257.12 772.00,254.16 ZM 708.03 206.53 C704.88,203.32 704.05,201.93 705.08,201.55 C711.65,199.16 714.89,198.22 715.27,198.60 C715.88,199.21 714.02,209.32 713.13,210.25 C712.73,210.66 710.44,208.98 708.03,206.53 ZM 713.00 203.58 C713.00,201.66 712.58,201.36 710.50,201.76 C707.56,202.32 707.45,202.74 709.63,205.15 C711.61,207.34 713.00,206.69 713.00,203.58 ZM 367.22 202.44 C363.03,199.51 365.55,192.00 370.72,192.00 C372.82,192.00 376.00,195.83 376.00,198.35 C376.00,200.90 373.20,204.00 370.89,204.00 C370.10,204.00 368.44,203.30 367.22,202.44 ZM 372.80 200.80 C375.79,197.81 372.39,193.08 368.72,195.13 C365.83,196.75 367.19,202.00 370.50,202.00 C371.11,202.00 372.14,201.46 372.80,200.80 ZM 439.57 194.43 C436.34,191.20 436.34,184.80 439.57,181.57 C440.46,180.69 442.83,180.00 445.00,180.00 C447.97,180.00 449.33,180.60 450.93,182.63 C455.38,188.30 451.96,196.00 445.00,196.00 C442.83,196.00 440.46,195.31 439.57,194.43 ZM 449.17 192.35 C452.97,188.91 450.30,182.00 445.17,182.00 C439.89,182.00 436.90,188.76 440.57,192.43 C442.62,194.48 446.86,194.44 449.17,192.35 ZM 530.57 191.43 C528.43,189.29 528.60,186.40 531.00,184.00 C534.21,180.79 538.53,181.63 540.10,185.77 C542.18,191.22 534.76,195.62 530.57,191.43 ZM 537.95 189.56 C538.83,188.50 538.85,187.60 538.03,186.06 C535.91,182.09 530.12,184.64 531.48,188.95 C532.25,191.36 536.15,191.73 537.95,189.56 ZM 317.73 157.84 C316.82,155.00 316.29,152.34 316.54,151.93 C317.01,151.18 326.69,153.36 327.79,154.46 C328.38,155.04 321.11,163.00 319.99,163.00 C319.65,163.00 318.64,160.68 317.73,157.84 ZM 322.50 154.67 C319.23,153.58 318.73,154.06 319.57,157.44 L 320.25 160.12 L 322.68 157.83 L 325.12 155.54 L 322.50 154.67 ZM 632.57 158.43 C630.71,156.57 630.50,151.90 632.20,150.20 C633.99,148.41 638.47,148.75 640.35,150.83 C645.03,156.01 637.51,163.36 632.57,158.43 ZM 638.96 156.55 C641.05,154.03 639.80,151.50 636.49,151.50 C634.10,151.50 633.43,151.98 633.16,153.89 C632.64,157.57 636.61,159.39 638.96,156.55 ZM 475.45 133.53 C473.52,128.91 473.62,127.27 475.93,126.04 C478.71,124.55 480.47,124.75 483.04,126.83 C485.99,129.22 485.16,132.88 481.14,135.26 C477.22,137.57 477.12,137.54 475.45,133.53 ZM 481.07 132.96 C483.43,131.70 483.60,128.45 481.36,127.58 C477.31,126.03 474.26,129.86 477.20,132.80 C478.65,134.25 478.66,134.25 481.07,132.96 ZM 459.64 851.31 C459.29,850.95 459.00,844.89 459.00,837.83 C459.00,827.09 459.24,825.00 460.50,825.00 C461.76,825.00 462.00,827.10 462.00,837.94 C462.00,849.74 461.41,853.08 459.64,851.31 ZM 453.00 814.50 C453.00,791.50 453.35,779.00 454.00,779.00 C454.65,779.00 455.00,791.50 455.00,814.50 C455.00,837.50 454.65,850.00 454.00,850.00 C453.35,850.00 453.00,837.50 453.00,814.50 ZM 566.00 837.08 C566.00,829.03 566.38,824.00 567.00,824.00 C567.60,824.00 568.06,828.60 568.15,835.50 C568.23,841.83 568.34,847.53 568.40,848.17 C568.46,848.81 567.94,849.52 567.25,849.75 C566.29,850.07 566.00,847.11 566.00,837.08 ZM 447.00 810.94 C447.00,787.16 447.34,775.09 448.00,775.50 C448.64,775.89 449.00,789.01 449.00,811.56 C449.00,834.52 448.65,847.00 448.00,847.00 C447.35,847.00 447.00,834.31 447.00,810.94 ZM 572.00 811.00 C572.00,788.33 572.35,776.00 573.00,776.00 C573.65,776.00 574.00,788.33 574.00,811.00 C574.00,833.67 573.65,846.00 573.00,846.00 C572.35,846.00 572.00,833.67 572.00,811.00 ZM 566.00 799.56 C566.00,788.34 566.39,780.88 567.00,780.50 C567.65,780.10 568.00,786.49 568.00,798.94 C568.00,810.98 567.63,818.00 567.00,818.00 C566.37,818.00 566.00,811.19 566.00,799.56 ZM 502.00 492.99 C493.53,491.96 484.63,488.91 473.50,483.22 C466.05,479.41 462.77,476.88 454.47,468.56 C446.17,460.23 443.73,457.04 440.27,450.00 C434.21,437.67 430.42,425.00 432.79,425.00 C433.90,425.00 436.00,430.26 436.00,433.02 C436.00,434.59 438.23,440.47 441.31,447.00 C452.95,471.75 483.12,491.00 510.27,491.00 C516.14,491.00 518.06,491.32 517.76,492.25 C517.26,493.77 510.87,494.07 502.00,492.99 ZM 501.58 484.58 C498.88,483.98 496.48,482.94 496.25,482.25 C495.75,480.75 496.07,480.75 502.71,482.30 C505.98,483.07 507.65,483.92 507.21,484.59 C506.71,485.34 505.06,485.34 501.58,484.58 ZM 485.08 479.84 C479.08,478.11 466.23,469.04 459.51,461.79 C450.59,452.15 451.24,449.87 460.26,459.16 C467.92,467.04 477.45,473.86 484.67,476.62 C487.05,477.53 489.00,478.89 489.00,479.64 C489.00,480.39 488.89,480.96 488.75,480.91 C488.61,480.86 486.96,480.38 485.08,479.84 ZM 446.56 443.75 C444.02,438.39 441.13,429.59 441.64,428.77 C442.75,426.98 443.84,428.29 444.94,432.75 C445.58,435.36 447.21,439.64 448.56,442.25 C450.48,445.97 450.70,447.00 449.56,447.00 C448.75,447.00 447.40,445.54 446.56,443.75 ZM 432.00 396.66 C432.00,392.32 435.84,379.26 438.89,373.21 C442.00,367.06 450.55,355.11 454.46,351.46 C459.89,346.40 466.11,341.77 466.70,342.36 C467.05,342.72 465.36,344.69 462.92,346.74 C448.07,359.27 439.93,372.19 435.68,389.97 C433.61,398.65 432.00,401.58 432.00,396.66 ZM 441.55 393.09 C440.68,391.67 446.27,376.81 450.08,370.45 C453.95,363.99 464.25,353.00 466.43,353.00 C467.22,353.00 464.64,356.30 460.69,360.34 C456.73,364.38 452.21,370.11 450.64,373.09 C447.15,379.69 444.00,388.49 444.00,391.66 C444.00,394.00 442.62,394.81 441.55,393.09 ZM 569.21 374.24 C558.52,356.25 540.95,343.99 520.75,340.44 C516.97,339.77 515.50,337.99 518.75,338.02 C521.67,338.04 531.19,340.60 536.75,342.85 C550.14,348.27 565.35,361.63 571.37,373.27 C575.67,381.58 574.02,382.33 569.21,374.24 ZM 577.59 370.75 C569.40,355.94 553.13,341.71 538.00,336.10 C530.22,333.22 518.89,331.00 511.93,331.00 C508.19,331.00 506.00,330.58 506.00,329.87 C506.00,329.07 509.00,328.88 516.25,329.23 C534.91,330.11 551.35,337.57 565.53,351.58 C575.11,361.05 584.74,376.00 581.25,376.00 C580.84,376.00 579.19,373.64 577.59,370.75 Z" fill="rgba(0,0,0,1)"/>
</g>
</svg>